<?xml version="1.0" encoding="utf-8"?>
<!-- Generator: Adobe Illustrator 20.1.0, SVG Export Plug-In . SVG Version: 6.00 Build 0)  -->
<svg version="1.1" id="Icons" xmlns="http://www.w3.org/2000/svg" xmlns:xlink="http://www.w3.org/1999/xlink" x="0px" y="0px"
	 viewBox="0 0 438.5 531.3" style="enable-background:new 0 0 438.5 531.3;" xml:space="preserve">
<style type="text/css">
	.st0{fill:none;stroke:#038FF4;stroke-width:15;stroke-miterlimit:10;}
	.st1{fill:#068DF6;stroke:#FFFFFF;stroke-miterlimit:10;}
</style>
<title>always-safer</title>
<g id="_7">
	<path class="st0" d="M219.3,523.8c-1.4,0-2.8-0.4-4-1.3L94.4,438.1c-44.8-32-72.5-82.6-75.3-137.6L7.5,104.6
		c-0.8-14.8,9.4-27.9,23.9-30.9c7.2-1.3,14.5-1.8,21.8-1.7c1.6,0,3.3,0,5,0.1c38.9,0.8,77-10.9,108.8-33.3l38-26.7
		c8.6-6.1,20.1-6.1,28.7,0l39.1,27.3c31.1,21.6,68.1,33.2,105.9,33c1.3,0,2.7,0,4,0c1.5,0,3.1,0,4.6-0.1c6.6-0.1,13.2,0.4,19.7,1.5
		c14.5,2.9,24.7,16.1,24,30.9l-11.5,195.9c-2.8,54.9-30.6,105.5-75.3,137.5l-120.9,84.6C222.1,523.5,220.7,523.9,219.3,523.8z"/>
	<path class="st1" d="M219.3,366.6c-62.2,0-112.5-50.4-112.5-112.5s50.4-112.5,112.5-112.5S331.8,191.9,331.8,254
		C331.7,316.1,281.4,366.5,219.3,366.6z M219.3,155.5c-54.4,0-98.5,44.1-98.5,98.5s44.1,98.5,98.5,98.5s98.5-44.1,98.5-98.5
		C317.7,199.6,273.7,155.5,219.3,155.5L219.3,155.5z"/>
	<path class="st1" d="M206.2,295.1c-1.9,0-3.7-0.7-5-2.1l-28.8-28.8c-2.7-2.7-2.7-7.2,0-9.9s7.2-2.7,9.9,0l23.4,23.3l50.1-62.2
		c2.4-3,6.8-3.5,9.8-1.1s3.5,6.8,1.1,9.8l-55,68.2c-1.2,1.5-3.1,2.5-5.1,2.6L206.2,295.1z"/>
</g>
</svg>
