<?xml version="1.0" encoding="iso-8859-1"?>
<!-- Generator: Adobe Illustrator 19.0.0, SVG Export Plug-In . SVG Version: 6.00 Build 0)  -->
<svg xmlns="http://www.w3.org/2000/svg" xmlns:xlink="http://www.w3.org/1999/xlink" version="1.1" id="Capa_1" x="0px" y="0px" viewBox="0 0 512 512" style="enable-background:new 0 0 512 512;" xml:space="preserve" width="512px" height="512px">
<g>
	<g>
		<g>
			<path d="M512,216h-24v-32c0-4.418-3.582-8-8-8h-19.012L447.2,148.424c-1.362-2.725-4.153-4.441-7.2-4.424h-32V8     c0-4.418-3.582-8-8-8H112c-4.418,0-8,3.582-8,8v136H72c-3.032-0.001-5.805,1.712-7.16,4.424L51.052,176H32c-4.418,0-8,3.582-8,8     v32H0v16h24v256c0,13.255,10.745,24,24,24h416c13.255,0,24-10.745,24-24V232h24V216z M120,16h272v128h-16V40c0-4.418-3.582-8-8-8     H144c-4.418,0-8,3.582-8,8v104h-16V16z M152,144V48h208v96H152z M296,246.845c-4-1.052-8-3.053-8-6.845c0-4.418-3.582-8-8-8h-48     c-4.418,0-8,3.582-8,8c0,3.792-4,5.792-8,6.845v-35.117c11.731-8.097,25.754-12.208,40-11.728     c14.245-0.483,28.268,3.625,40,11.72V246.845z M216,263.256c9.619-0.922,18.111-6.669,22.544-15.256h34.912     c4.433,8.587,12.925,14.334,22.544,15.256V272c0,22.144-10.48,48-40,48s-40-25.856-40-48V263.256z M256,336     c7.042,0,13.626-1.21,19.634-3.466l3.055,9.466L256,364.688l-22.695-22.695l3.05-9.463C242.366,334.789,248.954,336,256,336z      M222.01,353.322l25.99,25.99V408h16v-28.688l25.987-25.987l48.165,20.851L344,385.888V496h-24v-40h-16v40h-96v-40h-16v40h-24     V385.888l5.84-11.712L222.01,353.322z M472,488c0,4.418-3.582,8-8,8H360V384c0.014-1.238-0.26-2.462-0.8-3.576l-8-16     c-0.852-1.685-2.267-3.018-4-3.768l-53.12-22.976l-4.274-13.254C303.644,313.24,312,294.684,312,272v-16v-48     c0-2.122-0.844-4.156-2.344-5.656C294.713,189.702,275.555,183.152,256,184c-19.555-0.848-38.712,5.702-53.656,18.344     c-1.5,1.5-2.344,3.534-2.344,5.656v48v16c0,22.678,8.351,41.229,22.182,52.416l-4.278,13.264l-53.064,22.976     c-1.733,0.75-3.148,2.083-4,3.768l-8,16c-0.554,1.111-0.841,2.335-0.84,3.576v112H48c-4.418,0-8-3.582-8-8V232h24v200h16V232h96     v-16H40v-24h16h136v-16H68.944l8-16H112h32h224h32h35.056l8,16H320v16h136h16v24H336v16h96v200h16V232h24V488z" fill="#68adde"/>
			<rect x="64" y="448" width="16" height="16" fill="#68adde"/>
			<rect x="432" y="448" width="16" height="16" fill="#68adde"/>
			<path d="M96,256v32h16v-24h16v-16h-24C99.582,248,96,251.582,96,256z" fill="#68adde"/>
			<path d="M408,248h-24v16h16v24h16v-32C416,251.582,412.418,248,408,248z" fill="#68adde"/>
		</g>
	</g>
</g>
<g>
</g>
<g>
</g>
<g>
</g>
<g>
</g>
<g>
</g>
<g>
</g>
<g>
</g>
<g>
</g>
<g>
</g>
<g>
</g>
<g>
</g>
<g>
</g>
<g>
</g>
<g>
</g>
<g>
</g>
</svg>
