<?xml version="1.0" encoding="iso-8859-1"?>
<!-- Generator: Adobe Illustrator 19.0.0, SVG Export Plug-In . SVG Version: 6.00 Build 0)  -->
<svg xmlns="http://www.w3.org/2000/svg" xmlns:xlink="http://www.w3.org/1999/xlink" version="1.1" id="Capa_1" x="0px" y="0px" viewBox="0 0 74 74" style="enable-background:new 0 0 74 74;" xml:space="preserve" width="512px" height="512px">
<g>
	<path d="M62,27.884V2H12v25.883L0,38.551V72h74V38.551L62,27.884z M60,4v40.705L36.999,57.848L14,44.706V4   H60z M72,70H2V39.449l10-8.891v13.004l-2.505-1.431l-0.992,1.736l28.496,16.283l28.496-16.283l-0.992-1.736L62,43.562V30.56   l10,8.89V70z" fill="#933EC5"/>
	<rect x="21" y="10" width="20" height="2" fill="#933EC5"/>
	<rect x="21" y="18" width="32" height="2" fill="#933EC5"/>
	<rect x="21" y="26" width="32" height="2" fill="#933EC5"/>
	<rect x="21" y="34" width="32" height="2" fill="#933EC5"/>
	<rect x="21" y="42" width="32" height="2" fill="#933EC5"/>
</g>
<g>
</g>
<g>
</g>
<g>
</g>
<g>
</g>
<g>
</g>
<g>
</g>
<g>
</g>
<g>
</g>
<g>
</g>
<g>
</g>
<g>
</g>
<g>
</g>
<g>
</g>
<g>
</g>
<g>
</g>
</svg>
