<?xml version="1.0" encoding="iso-8859-1"?>
<!-- Generator: Adobe Illustrator 16.0.0, SVG Export Plug-In . SVG Version: 6.00 Build 0)  -->
<!DOCTYPE svg PUBLIC "-//W3C//DTD SVG 1.1//EN" "http://www.w3.org/Graphics/SVG/1.1/DTD/svg11.dtd">
<svg xmlns="http://www.w3.org/2000/svg" xmlns:xlink="http://www.w3.org/1999/xlink" version="1.1" id="Capa_1" x="0px" y="0px" width="512px" height="512px" viewBox="0 0 487.406 487.406" style="enable-background:new 0 0 487.406 487.406;" xml:space="preserve">
<g>
	<g>
		<polygon points="66.624,266.493 66.624,273.51 115.144,273.51 132.676,291.042 156.036,291.042 156.036,284.026 135.573,284.026     118.041,266.493   " fill="#038191"/>
		<path d="M198.119,180.586c0-7.737-6.294-14.024-14.033-14.024H66.624c-7.738,0-14.031,6.287-14.031,14.024v35.779    c-0.263,1.182-0.437,2.402-0.437,3.67c0,1.266,0.174,2.48,0.437,3.67v74.351c0,7.731,6.292,14.024,14.031,14.024h117.462    c7.739,0,14.033-6.293,14.033-14.024v-44.329c0.261-1.182,0.434-2.401,0.434-3.666c0-1.27-0.173-2.489-0.434-3.67V180.586z     M66.612,210.666c0.712-0.161,1.445-0.273,2.202-0.273h39.892c5.316,0,9.642,4.319,9.642,9.642s-4.321,9.644-9.642,9.644H68.814    c-0.757,0-1.49-0.112-2.202-0.273V210.666z M184.086,259.435c-0.7,0.158-1.434,0.274-2.19,0.274h-39.879    c-5.318,0-9.656-4.329-9.656-9.647c0-5.313,4.331-9.647,9.656-9.647h39.879c0.756,0,1.49,0.109,2.19,0.274V259.435z     M184.086,203.383h-37.558l-17.535-17.535h-23.365v7.015h20.465l17.532,17.535h40.461v23.231c-0.722-0.1-1.434-0.219-2.19-0.219    h-39.879c-9.196,0-16.66,7.469-16.66,16.657c0,9.183,7.464,16.656,16.66,16.656h39.879c0.756,0,1.468-0.12,2.19-0.218v31.551    H66.624l-0.012-61.586c0.733,0.096,1.457,0.224,2.202,0.224h39.892c9.181,0,16.656-7.475,16.656-16.659    c0-9.191-7.475-16.66-16.656-16.66H68.814c-0.757,0-1.469,0.126-2.202,0.224v-23.013h0.012h117.462V203.383z" fill="#038191"/>
		<path d="M473.372,71.888H14.033C6.292,71.888,0,78.181,0,85.912v315.581c0,7.739,6.292,14.025,14.033,14.025h459.339    c7.741,0,14.034-6.286,14.034-14.025V85.912C487.402,78.181,481.107,71.888,473.372,71.888z M14.033,401.493V85.912h459.339    l0.015,315.581H14.033z" fill="#038191"/>
		<path d="M419.022,127.995H71.879c-2.902,0-5.255,2.353-5.255,5.255c0,2.903,2.353,5.256,5.255,5.256h347.143    c2.913,0,5.267-2.353,5.267-5.256C424.289,130.348,421.936,127.995,419.022,127.995z" fill="#038191"/>
	</g>
</g>
<g>
</g>
<g>
</g>
<g>
</g>
<g>
</g>
<g>
</g>
<g>
</g>
<g>
</g>
<g>
</g>
<g>
</g>
<g>
</g>
<g>
</g>
<g>
</g>
<g>
</g>
<g>
</g>
<g>
</g>
</svg>
