<?xml version="1.0" encoding="iso-8859-1"?>
<!-- Generator: Adobe Illustrator 19.0.0, SVG Export Plug-In . SVG Version: 6.00 Build 0)  -->
<svg xmlns="http://www.w3.org/2000/svg" xmlns:xlink="http://www.w3.org/1999/xlink" version="1.1" id="Capa_1" x="0px" y="0px" viewBox="0 0 512 512" style="enable-background:new 0 0 512 512;" xml:space="preserve" width="512px" height="512px">
<g>
	<g>
		<path d="M505.029,163.082c-4.479-4.465-10.422-6.922-16.739-6.922h-0.073l-377.283,0.94c-1.635-12.184-7.227-23.408-16.149-32.183    c-10.736-10.558-24.959-16.242-40.015-15.982C24.57,109.439,0,134.786,0,165.438v181.731    c-0.055,14.573,5.433,28.296,15.575,38.829c10.602,11.013,24.859,17.078,40.143,17.078h432.565    c13.077,0,23.718-10.64,23.718-23.718v-199.48C512,173.528,509.525,167.564,505.029,163.082z M15.059,165.438    c0-22.486,17.926-41.078,39.961-41.446c0.234-0.004,0.468-0.006,0.701-0.006c10.738,0,20.837,4.128,28.504,11.669    c7.837,7.705,12.151,18.001,12.151,28.99v144.614c-0.654-0.695-1.326-1.376-2.019-2.043    c-11.009-10.598-25.506-16.119-40.803-15.534c-15.122,0.574-28.764,7.278-38.495,17.681V165.438z M496.942,379.358    c0,4.782-3.876,8.659-8.659,8.659H56.538c-11.527,0-22.722-4.523-30.58-12.956c-7.061-7.576-10.893-17.326-10.899-27.674v-0.096    c0.001-0.507,0.011-1.016,0.03-1.525c0.236-6.214,1.9-12.081,4.658-17.294v1.382c-0.452,12.91,4.21,25.118,13.135,34.388    c9.017,9.367,21.731,14.738,34.882,14.738h258.313c4.691,0,8.164-4.315,7.221-8.911c-0.013-0.063-0.026-0.128-0.039-0.191    c-0.698-3.459-3.714-5.958-7.242-5.958H67.765c-9.214,0-17.749-3.595-24.034-10.123c-6.094-6.331-9.265-14.683-8.931-23.521    c0.003-0.095,0.005-0.191,0.005-0.286v-16.768c0-0.227-0.013-0.45-0.033-0.672c5.704-3.456,12.306-5.556,19.353-5.824    c11.177-0.432,21.754,3.6,29.787,11.334c7.977,7.681,12.397,17.988,12.463,29.048c0.024,4.062,3.146,7.598,7.205,7.768    c4.306,0.181,7.855-3.257,7.855-7.522V197.061h360.408v16.167l-16.52,2.055c-8.914,1.108-15.606,8.684-15.606,17.667v94.29    c0,8.982,6.691,16.558,15.605,17.667l16.521,2.054v16.961h-99.624c-3.573,0-6.663,2.552-7.269,6.074    c-0.016,0.096-0.033,0.193-0.051,0.289c-0.808,4.531,2.659,8.696,7.262,8.696h107.212c4.158,0,7.529-3.371,7.529-7.529V189.532    c0-4.158-3.371-7.529-7.529-7.529H111.436v-9.845l376.821-0.939h0.027c1.322,0,2.65,0.251,3.823,0.86    c3.072,1.597,4.835,4.561,4.835,7.797V379.358z M471.844,228.404v103.383l-14.661-1.823c-1.371-0.17-2.405-1.341-2.405-2.723    v-94.29c0-1.381,1.034-2.553,2.405-2.723L471.844,228.404z" fill="#006DF0"/>
	</g>
</g>
<g>
	<g>
		<path d="M405.166,204.3h-22.253c-9.088,0-16.481,7.394-16.481,16.481v33.296c0,9.088,7.394,16.481,16.481,16.481h22.253    c9.088,0,16.481-7.394,16.481-16.481v-33.296C421.648,211.693,414.254,204.3,405.166,204.3z M406.589,254.077    c0,0.784-0.638,1.423-1.423,1.423h-22.253c-0.784,0-1.423-0.638-1.423-1.423v-33.296c0-0.784,0.638-1.423,1.423-1.423h22.253    c0.784,0,1.423,0.638,1.423,1.423V254.077z" fill="#006DF0"/>
	</g>
</g>
<g>
	<g>
		<path d="M405.166,287.625h-22.253c-9.103,0-16.481,7.379-16.481,16.481v33.296c0,9.102,7.38,16.481,16.481,16.481h22.253    c9.103,0,16.481-7.379,16.481-16.481v-33.296C421.648,295.004,414.269,287.625,405.166,287.625z M406.589,337.402    c0,0.784-0.638,1.423-1.423,1.423h-22.253c-0.784,0-1.423-0.638-1.423-1.423v-33.296c0-0.784,0.638-1.423,1.423-1.423h22.253    c0.784,0,1.423,0.638,1.423,1.423V337.402z" fill="#006DF0"/>
	</g>
</g>
<g>
	<g>
		<path d="M215.425,204.3H143.98c-9.088,0-16.481,7.394-16.481,16.481v116.622c0,9.088,7.394,16.481,16.481,16.481h71.445    c9.088,0,16.481-7.394,16.481-16.481V220.781C231.906,211.693,224.512,204.3,215.425,204.3z M216.848,337.402    c0,0.784-0.638,1.423-1.423,1.423H143.98c-0.784,0-1.423-0.638-1.423-1.423V220.781c0-0.784,0.638-1.423,1.423-1.423h71.445    c0.784,0,1.423,0.638,1.423,1.423V337.402z" fill="#006DF0"/>
	</g>
</g>
<g>
	<g>
		<path d="M305.695,222.37c-31.83,0-57.726,25.895-57.726,57.726s25.896,57.725,57.726,57.725c31.83,0,57.725-25.895,57.725-57.725    S337.525,222.37,305.695,222.37z M305.695,322.762c-23.527,0-42.667-19.14-42.667-42.667s19.141-42.667,42.667-42.667    c23.527,0,42.667,19.14,42.667,42.667S329.221,322.762,305.695,322.762z" fill="#006DF0"/>
	</g>
</g>
<g>
	<g>
		<path d="M195.263,230.401c-4.158,0-7.529,3.371-7.529,7.529v42.165c0,4.158,3.371,7.529,7.529,7.529s7.529-3.371,7.529-7.529    v-42.165C202.793,233.773,199.421,230.401,195.263,230.401z" fill="#006DF0"/>
	</g>
</g>
<g>
	<g>
		<path d="M195.263,295.656c-4.158,0-7.529,3.371-7.529,7.529v20.078c0,4.158,3.371,7.529,7.529,7.529s7.529-3.371,7.529-7.529    v-20.078C202.793,299.028,199.421,295.656,195.263,295.656z" fill="#006DF0"/>
	</g>
</g>
<g>
	<g>
		<path d="M165.145,230.401c-4.158,0-7.529,3.371-7.529,7.529v17.067c0,4.158,3.371,7.529,7.529,7.529    c4.158,0,7.529-3.371,7.529-7.529v-17.067C172.675,233.773,169.304,230.401,165.145,230.401z" fill="#006DF0"/>
	</g>
</g>
<g>
	<g>
		<path d="M165.145,267.547c-4.158,0-7.529,3.371-7.529,7.529v48.188c0,4.158,3.371,7.529,7.529,7.529    c4.158,0,7.529-3.371,7.529-7.529v-48.188C172.675,270.918,169.304,267.547,165.145,267.547z" fill="#006DF0"/>
	</g>
</g>
<g>
</g>
<g>
</g>
<g>
</g>
<g>
</g>
<g>
</g>
<g>
</g>
<g>
</g>
<g>
</g>
<g>
</g>
<g>
</g>
<g>
</g>
<g>
</g>
<g>
</g>
<g>
</g>
<g>
</g>
</svg>
