<?xml version="1.0" encoding="UTF-8" standalone="no"?>
<svg width="317px" height="319px" viewBox="0 0 317 319" version="1.1" xmlns="http://www.w3.org/2000/svg" xmlns:xlink="http://www.w3.org/1999/xlink">
    <!-- Generator: Sketch 3.8.3 (29802) - http://www.bohemiancoding.com/sketch -->
    <title>Group 26</title>
    <desc>Created with Sketch.</desc>
    <defs>
        <path d="M0.0396980198,35.3406711 C8.35899067,35.9233373 6.14237891,35.8935543 15.6101436,35.2450693 C17.4975149,35.051495 19.0320149,33.5305545 19.2339356,31.6646733 C19.9181139,21.8001485 19.9181139,13.6263663 19.2339356,3.76669307 C19.0393885,1.96941684 17.6078104,0.490997299 15.815451,0.209681188 L0.0396980198,0.209681188 L0.0396980198,35.3406711 L0.0396980198,35.3406711 Z" id="path-1"></path>
        <polygon id="path-3" points="4.15463924 0.187974684 0.226537975 0.187974684 0.226537975 13.7117848 4.15463924 13.7117848 4.15463924 0.187974684"></polygon>
        <polygon id="path-5" points="4.2648038 0.187974684 0.337841772 0.187974684 0.337841772 13.7117848 4.2648038 13.7117848 4.2648038 0.187974684"></polygon>
        <polygon id="path-7" points="0.0324848485 21.6843279 5.25915152 21.6843279 5.25915152 0.113481316 0.0324848485 0.113481316"></polygon>
        <polygon id="path-9" points="0.259878788 21.6843279 5.48654545 21.6843279 5.48654545 0.113481316 0.259878788 0.113481316"></polygon>
        <polygon id="path-11" points="9.60581818 0.0433686559 0.287030303 0.0433686559 0.287030303 9.30378137 9.60581818 9.30378137 9.60581818 0.0433686559"></polygon>
    </defs>
    <g id="Page-1" stroke="none" stroke-width="1" fill="none" fill-rule="evenodd">
        <g id="Artboard-1-Copy-2" transform="translate(-504.000000, -114.000000)">
            <g id="Group-26" transform="translate(513.000000, 123.000000)">
                <g id="Group-19-Copy" stroke-width="18">
                    <path d="M77.3741047,281.742601 C149.642301,321.580382 240.480617,295.182194 280.263318,222.786299 C320.041576,150.382481 293.700502,59.4014286 221.42796,19.5636619 C149.157481,-20.2751132 58.3217222,6.12092103 18.5421027,78.5222408 C-21.2412306,150.920855 5.10406636,241.90783 77.3741047,281.742601 L77.3741047,281.742601 L77.3741047,281.742601 Z" id="Stroke-45" stroke="#E7E8E8" fill="#FFFFFF"></path>
                    <path d="M221.465834,19.1432557 C173.767021,-7.15209875 117.982459,-4.59241432 74.1239197,21.0038091" id="Stroke-47" stroke="#810052"></path>
                    <path d="M214.883363,15.7223001 C197.82875,7.38035087 179.879767,2.58937828 161.919831,1.09230011" id="Stroke-51" stroke="#550031"></path>
                    <path d="M214.854793,15.7093219 C203.202402,10.0149393 191.133831,5.97365988 178.93087,3.50634198" id="Stroke-55" stroke="#6DA4D8"></path>
                    <path d="M214.755792,15.6588304 C208.964685,12.8327638 203.063896,10.4177926 197.100169,8.39423019" id="Stroke-59" stroke="#EF4181"></path>
                </g>
                <path d="M149,181 L149,191" id="Line-Copy-7" stroke="#A73F7F" stroke-width="4" stroke-linecap="round"></path>
                <path d="M112.341664,150 L97.3416643,150" id="Line-Copy-5" stroke="#A73F7F" stroke-width="4" stroke-linecap="round"></path>
                <path d="M201.341664,150 L186.341664,150" id="Line-Copy-6" stroke="#A73F7F" stroke-width="4" stroke-linecap="round"></path>
                <path d="M87.559,53 L87.559,51.388 L83.36,51.388 L83.36,43.744 L81.553,43.744 L81.553,53 L87.559,53 Z M95.125,53 L95.125,51.388 L90.835,51.388 L90.835,49.139 L94.488,49.139 L94.488,47.527 L90.835,47.527 L90.835,45.356 L95.125,45.356 L95.125,43.744 L89.028,43.744 L89.028,53 L95.125,53 Z M104.043,53 L100.663,43.744 L99.246,43.744 L95.879,53 L97.764,53 L98.323,51.362 L101.612,51.362 L102.158,53 L104.043,53 Z M101.131,49.841 L98.83,49.841 L100,46.474 L101.131,49.841 Z M111.622,43.744 L109.737,43.744 L107.878,49.776 L106.019,43.744 L104.147,43.744 L107.202,53 L108.554,53 L111.622,43.744 Z M118.837,53 L118.837,51.388 L114.547,51.388 L114.547,49.139 L118.2,49.139 L118.2,47.527 L114.547,47.527 L114.547,45.356 L118.837,45.356 L118.837,43.744 L112.74,43.744 L112.74,53 L118.837,53 Z" id="LEAVE" fill="#9B9B9B"></path>
                <path d="M201.63,53 L201.63,51.388 L197.34,51.388 L197.34,49.139 L200.993,49.139 L200.993,47.527 L197.34,47.527 L197.34,45.356 L201.63,45.356 L201.63,43.744 L195.533,43.744 L195.533,53 L201.63,53 Z M210.093,53 L207.207,48.255 L209.898,43.744 L207.857,43.744 L206.232,46.734 L204.62,43.744 L202.566,43.744 L205.257,48.255 L202.384,53 L204.451,53 L206.232,49.776 L208.026,53 L210.093,53 Z M213.044,53 L213.044,43.744 L211.237,43.744 L211.237,53 L213.044,53 Z M221.156,45.356 L221.156,43.744 L214.513,43.744 L214.513,45.356 L216.931,45.356 L216.931,53 L218.738,53 L218.738,45.356 L221.156,45.356 Z" id="EXIT" fill="#9B9B9B"></path>
                <path d="M115.837,264.372 C115.837,262.773 115.85,261.616 114.914,260.68 C114.264,260.03 113.471,259.666 112.418,259.666 C111.365,259.666 110.559,260.03 109.909,260.68 C108.973,261.616 108.999,262.773 108.999,264.372 C108.999,265.971 108.973,267.128 109.909,268.064 C110.559,268.714 111.365,269.078 112.418,269.078 C113.471,269.078 114.264,268.714 114.914,268.064 C115.85,267.128 115.837,265.971 115.837,264.372 L115.837,264.372 Z M114.03,264.372 C114.03,266.153 113.926,266.582 113.575,266.972 C113.315,267.271 112.912,267.466 112.418,267.466 C111.924,267.466 111.508,267.271 111.248,266.972 C110.897,266.582 110.806,266.153 110.806,264.372 C110.806,262.591 110.897,262.162 111.248,261.772 C111.508,261.473 111.924,261.278 112.418,261.278 C112.912,261.278 113.315,261.473 113.575,261.772 C113.926,262.162 114.03,262.591 114.03,264.372 L114.03,264.372 Z M124.768,269 L124.768,259.744 L122.961,259.744 L122.961,265.412 L119.295,259.744 L117.683,259.744 L117.683,269 L119.49,269 L119.49,263.319 L123.156,269 L124.768,269 Z M133.634,266.335 C133.634,265.1 132.919,264.515 132.36,264.255 C132.828,264.034 133.504,263.371 133.504,262.344 C133.504,260.758 132.451,259.744 130.644,259.744 L126.926,259.744 L126.926,269 L130.8,269 C132.451,269 133.634,268.064 133.634,266.335 L133.634,266.335 Z M131.697,262.422 C131.697,263.059 131.268,263.488 130.501,263.488 L128.733,263.488 L128.733,261.356 L130.501,261.356 C131.268,261.356 131.697,261.785 131.697,262.422 L131.697,262.422 Z M131.827,266.244 C131.827,266.868 131.437,267.388 130.618,267.388 L128.733,267.388 L128.733,265.113 L130.618,265.113 C131.437,265.113 131.827,265.62 131.827,266.244 L131.827,266.244 Z M142.006,264.372 C142.006,262.773 142.019,261.616 141.083,260.68 C140.433,260.03 139.64,259.666 138.587,259.666 C137.534,259.666 136.728,260.03 136.078,260.68 C135.142,261.616 135.168,262.773 135.168,264.372 C135.168,265.971 135.142,267.128 136.078,268.064 C136.728,268.714 137.534,269.078 138.587,269.078 C139.64,269.078 140.433,268.714 141.083,268.064 C142.019,267.128 142.006,265.971 142.006,264.372 L142.006,264.372 Z M140.199,264.372 C140.199,266.153 140.095,266.582 139.744,266.972 C139.484,267.271 139.081,267.466 138.587,267.466 C138.093,267.466 137.677,267.271 137.417,266.972 C137.066,266.582 136.975,266.153 136.975,264.372 C136.975,262.591 137.066,262.162 137.417,261.772 C137.677,261.473 138.093,261.278 138.587,261.278 C139.081,261.278 139.484,261.473 139.744,261.772 C140.095,262.162 140.199,262.591 140.199,264.372 L140.199,264.372 Z M151.002,269 L147.622,259.744 L146.205,259.744 L142.838,269 L144.723,269 L145.282,267.362 L148.571,267.362 L149.117,269 L151.002,269 Z M148.09,265.841 L145.789,265.841 L146.959,262.474 L148.09,265.841 Z M159.153,269 L157.086,265.009 C157.983,264.684 158.776,263.878 158.776,262.578 C158.776,261.031 157.658,259.744 155.773,259.744 L152.146,259.744 L152.146,269 L153.953,269 L153.953,265.308 L155.253,265.308 L157.06,269 L159.153,269 Z M156.969,262.578 C156.969,263.293 156.449,263.8 155.656,263.8 L153.953,263.8 L153.953,261.356 L155.656,261.356 C156.449,261.356 156.969,261.863 156.969,262.578 L156.969,262.578 Z M167.369,264.333 C167.369,262.942 167.473,261.668 166.433,260.628 C165.822,260.017 164.951,259.744 163.989,259.744 L160.648,259.744 L160.648,269 L163.989,269 C164.951,269 165.822,268.727 166.433,268.116 C167.473,267.076 167.369,265.724 167.369,264.333 L167.369,264.333 Z M165.562,264.333 C165.562,265.737 165.51,266.4 165.172,266.816 C164.86,267.193 164.444,267.388 163.82,267.388 L162.455,267.388 L162.455,261.356 L163.82,261.356 C164.444,261.356 164.86,261.551 165.172,261.928 C165.51,262.344 165.562,262.929 165.562,264.333 L165.562,264.333 Z M171.022,269 L171.022,259.744 L169.215,259.744 L169.215,269 L171.022,269 Z M180.265,269 L180.265,259.744 L178.458,259.744 L178.458,265.412 L174.792,259.744 L173.18,259.744 L173.18,269 L174.987,269 L174.987,263.319 L178.653,269 L180.265,269 Z M189.014,265.204 L189.014,263.852 L185.517,263.852 L185.517,265.36 L187.22,265.36 L187.22,265.711 C187.22,266.192 187.103,266.608 186.804,266.946 C186.505,267.271 186.063,267.466 185.517,267.466 C185.023,267.466 184.62,267.284 184.36,266.985 C184.009,266.595 183.918,266.153 183.918,264.372 C183.918,262.591 184.009,262.162 184.36,261.772 C184.62,261.473 185.023,261.278 185.517,261.278 C186.44,261.278 186.973,261.759 187.181,262.63 L189.001,262.63 C188.754,261.07 187.662,259.666 185.517,259.666 C184.477,259.666 183.671,260.03 183.021,260.68 C182.085,261.616 182.111,262.773 182.111,264.372 C182.111,265.971 182.085,267.128 183.021,268.064 C183.671,268.714 184.503,269.078 185.517,269.078 C186.505,269.078 187.389,268.792 188.13,268.025 C188.78,267.349 189.014,266.543 189.014,265.204 L189.014,265.204 Z" id="ONBOARDING" fill="#9B9B9B"></path>
                <path d="M26.182,178.63 C26.182,177.057 25.038,175.744 23.127,175.744 L19.539,175.744 L19.539,185 L21.346,185 L21.346,181.516 L23.127,181.516 C25.038,181.516 26.182,180.203 26.182,178.63 L26.182,178.63 Z M24.375,178.63 C24.375,179.384 23.855,179.891 23.036,179.891 L21.346,179.891 L21.346,177.356 L23.036,177.356 C23.855,177.356 24.375,177.876 24.375,178.63 L24.375,178.63 Z M33.8,185 L33.8,183.388 L29.51,183.388 L29.51,181.139 L33.163,181.139 L33.163,179.527 L29.51,179.527 L29.51,177.356 L33.8,177.356 L33.8,175.744 L27.703,175.744 L27.703,185 L33.8,185 Z M42.575,185 L40.508,181.009 C41.405,180.684 42.198,179.878 42.198,178.578 C42.198,177.031 41.08,175.744 39.195,175.744 L35.568,175.744 L35.568,185 L37.375,185 L37.375,181.308 L38.675,181.308 L40.482,185 L42.575,185 Z M40.391,178.578 C40.391,179.293 39.871,179.8 39.078,179.8 L37.375,179.8 L37.375,177.356 L39.078,177.356 C39.871,177.356 40.391,177.863 40.391,178.578 L40.391,178.578 Z M50.167,177.356 L50.167,175.744 L44.07,175.744 L44.07,185 L45.877,185 L45.877,181.243 L49.53,181.243 L49.53,179.631 L45.877,179.631 L45.877,177.356 L50.167,177.356 Z M58.266,180.372 C58.266,178.773 58.279,177.616 57.343,176.68 C56.693,176.03 55.9,175.666 54.847,175.666 C53.794,175.666 52.988,176.03 52.338,176.68 C51.402,177.616 51.428,178.773 51.428,180.372 C51.428,181.971 51.402,183.128 52.338,184.064 C52.988,184.714 53.794,185.078 54.847,185.078 C55.9,185.078 56.693,184.714 57.343,184.064 C58.279,183.128 58.266,181.971 58.266,180.372 L58.266,180.372 Z M56.459,180.372 C56.459,182.153 56.355,182.582 56.004,182.972 C55.744,183.271 55.341,183.466 54.847,183.466 C54.353,183.466 53.937,183.271 53.677,182.972 C53.326,182.582 53.235,182.153 53.235,180.372 C53.235,178.591 53.326,178.162 53.677,177.772 C53.937,177.473 54.353,177.278 54.847,177.278 C55.341,177.278 55.744,177.473 56.004,177.772 C56.355,178.162 56.459,178.591 56.459,180.372 L56.459,180.372 Z M67.119,185 L65.052,181.009 C65.949,180.684 66.742,179.878 66.742,178.578 C66.742,177.031 65.624,175.744 63.739,175.744 L60.112,175.744 L60.112,185 L61.919,185 L61.919,181.308 L63.219,181.308 L65.026,185 L67.119,185 Z M64.935,178.578 C64.935,179.293 64.415,179.8 63.622,179.8 L61.919,179.8 L61.919,177.356 L63.622,177.356 C64.415,177.356 64.935,177.863 64.935,178.578 L64.935,178.578 Z M76.999,185 L76.999,175.744 L75.218,175.744 L72.813,180.749 L70.395,175.744 L68.614,175.744 L68.614,185 L70.421,185 L70.421,179.605 L72.202,183.115 L73.424,183.115 L75.192,179.605 L75.192,185 L76.999,185 Z M86.307,185 L82.927,175.744 L81.51,175.744 L78.143,185 L80.028,185 L80.587,183.362 L83.876,183.362 L84.422,185 L86.307,185 Z M83.395,181.841 L81.094,181.841 L82.264,178.474 L83.395,181.841 Z M94.536,185 L94.536,175.744 L92.729,175.744 L92.729,181.412 L89.063,175.744 L87.451,175.744 L87.451,185 L89.258,185 L89.258,179.319 L92.924,185 L94.536,185 Z M103.194,182.153 L101.361,182.153 C101.179,182.894 100.711,183.466 99.801,183.466 C99.307,183.466 98.904,183.284 98.644,182.985 C98.293,182.595 98.189,182.153 98.189,180.372 C98.189,178.591 98.293,178.149 98.644,177.759 C98.904,177.46 99.307,177.278 99.801,177.278 C100.711,177.278 101.179,177.85 101.361,178.591 L103.194,178.591 C102.869,176.654 101.517,175.666 99.788,175.666 C98.774,175.666 97.942,176.03 97.292,176.68 C96.356,177.616 96.382,178.773 96.382,180.372 C96.382,181.971 96.356,183.128 97.292,184.064 C97.942,184.714 98.774,185.078 99.788,185.078 C101.504,185.078 102.869,184.09 103.194,182.153 L103.194,182.153 Z M110.851,185 L110.851,183.388 L106.561,183.388 L106.561,181.139 L110.214,181.139 L110.214,179.527 L106.561,179.527 L106.561,177.356 L110.851,177.356 L110.851,175.744 L104.754,175.744 L104.754,185 L110.851,185 Z" id="PERFORMANCE" fill="#9B9B9B"></path>
                <path d="M223.9405,177.356 L223.9405,175.744 L217.2975,175.744 L217.2975,177.356 L219.7155,177.356 L219.7155,185 L221.5225,185 L221.5225,177.356 L223.9405,177.356 Z M227.2165,185 L227.2165,175.744 L225.4095,175.744 L225.4095,185 L227.2165,185 Z M237.7595,185 L237.7595,175.744 L235.9785,175.744 L233.5735,180.749 L231.1555,175.744 L229.3745,175.744 L229.3745,185 L231.1815,185 L231.1815,179.605 L232.9625,183.115 L234.1845,183.115 L235.9525,179.605 L235.9525,185 L237.7595,185 Z M246.0145,185 L246.0145,183.388 L241.7245,183.388 L241.7245,181.139 L245.3775,181.139 L245.3775,179.527 L241.7245,179.527 L241.7245,177.356 L246.0145,177.356 L246.0145,175.744 L239.9175,175.744 L239.9175,185 L246.0145,185 Z M258.7675,185 L257.1035,183.037 C257.7535,182.309 258.0265,181.36 258.0915,180.164 L256.4925,180.164 C256.4665,180.827 256.3235,181.386 256.0245,181.789 L254.4645,179.943 C254.6985,179.787 255.1275,179.462 255.1275,179.462 C255.6995,179.046 256.0765,178.565 256.0765,177.85 C256.0765,176.589 255.1665,175.666 253.7105,175.666 C252.1635,175.666 251.2405,176.563 251.2405,177.824 C251.2405,178.708 251.7865,179.358 252.1635,179.787 C251.3575,180.32 250.4995,181.087 250.4995,182.27 C250.4995,184.012 251.5135,185.078 253.5545,185.078 C254.8805,185.078 255.5175,184.532 255.9465,184.194 L256.6225,185 L258.7675,185 Z M254.4775,177.863 C254.4775,178.188 254.2435,178.435 253.9445,178.643 C253.9445,178.643 253.6845,178.825 253.5545,178.903 C253.2295,178.526 252.9435,178.201 252.9435,177.863 C252.9435,177.434 253.2035,177.109 253.7105,177.109 C254.1915,177.109 254.4775,177.434 254.4775,177.863 L254.4775,177.863 Z M254.9195,182.998 C254.4905,183.375 254.0875,183.544 253.5415,183.544 C252.7615,183.544 252.1375,183.011 252.1375,182.244 C252.1375,181.581 252.5145,181.217 253.0735,180.827 L254.9195,182.998 Z M205.0905,198 L201.7105,188.744 L200.2935,188.744 L196.9265,198 L198.8115,198 L199.3705,196.362 L202.6595,196.362 L203.2055,198 L205.0905,198 Z M202.1785,194.841 L199.8775,194.841 L201.0475,191.474 L202.1785,194.841 Z M212.1885,190.356 L212.1885,188.744 L205.5455,188.744 L205.5455,190.356 L207.9635,190.356 L207.9635,198 L209.7705,198 L209.7705,190.356 L212.1885,190.356 Z M219.6115,190.356 L219.6115,188.744 L212.9685,188.744 L212.9685,190.356 L215.3865,190.356 L215.3865,198 L217.1935,198 L217.1935,190.356 L219.6115,190.356 Z M227.1775,198 L227.1775,196.388 L222.8875,196.388 L222.8875,194.139 L226.5405,194.139 L226.5405,192.527 L222.8875,192.527 L222.8875,190.356 L227.1775,190.356 L227.1775,188.744 L221.0805,188.744 L221.0805,198 L227.1775,198 Z M236.0305,198 L236.0305,188.744 L234.2235,188.744 L234.2235,194.412 L230.5575,188.744 L228.9455,188.744 L228.9455,198 L230.7525,198 L230.7525,192.319 L234.4185,198 L236.0305,198 Z M244.9095,193.333 C244.9095,191.942 245.0135,190.668 243.9735,189.628 C243.3625,189.017 242.4915,188.744 241.5295,188.744 L238.1885,188.744 L238.1885,198 L241.5295,198 C242.4915,198 243.3625,197.727 243.9735,197.116 C245.0135,196.076 244.9095,194.724 244.9095,193.333 L244.9095,193.333 Z M243.1025,193.333 C243.1025,194.737 243.0505,195.4 242.7125,195.816 C242.4005,196.193 241.9845,196.388 241.3605,196.388 L239.9955,196.388 L239.9955,190.356 L241.3605,190.356 C241.9845,190.356 242.4005,190.551 242.7125,190.928 C243.0505,191.344 243.1025,191.929 243.1025,193.333 L243.1025,193.333 Z M253.9055,198 L250.5255,188.744 L249.1085,188.744 L245.7415,198 L247.6265,198 L248.1855,196.362 L251.4745,196.362 L252.0205,198 L253.9055,198 Z M250.9935,194.841 L248.6925,194.841 L249.8625,191.474 L250.9935,194.841 Z M262.1345,198 L262.1345,188.744 L260.3275,188.744 L260.3275,194.412 L256.6615,188.744 L255.0495,188.744 L255.0495,198 L256.8565,198 L256.8565,192.319 L260.5225,198 L262.1345,198 Z M270.7925,195.153 L268.9595,195.153 C268.7775,195.894 268.3095,196.466 267.3995,196.466 C266.9055,196.466 266.5025,196.284 266.2425,195.985 C265.8915,195.595 265.7875,195.153 265.7875,193.372 C265.7875,191.591 265.8915,191.149 266.2425,190.759 C266.5025,190.46 266.9055,190.278 267.3995,190.278 C268.3095,190.278 268.7775,190.85 268.9595,191.591 L270.7925,191.591 C270.4675,189.654 269.1155,188.666 267.3865,188.666 C266.3725,188.666 265.5405,189.03 264.8905,189.68 C263.9545,190.616 263.9805,191.773 263.9805,193.372 C263.9805,194.971 263.9545,196.128 264.8905,197.064 C265.5405,197.714 266.3725,198.078 267.3865,198.078 C269.1025,198.078 270.4675,197.09 270.7925,195.153 L270.7925,195.153 Z M278.4495,198 L278.4495,196.388 L274.1595,196.388 L274.1595,194.139 L277.8125,194.139 L277.8125,192.527 L274.1595,192.527 L274.1595,190.356 L278.4495,190.356 L278.4495,188.744 L272.3525,188.744 L272.3525,198 L278.4495,198 Z" id="TIME-&amp;-ATTENDANCE" fill="#9B9B9B"></path>
                <g id="Group-87" transform="translate(76.000000, 61.000000)">
                    <path d="M46.6827152,11.5418165 C46.4668291,9.49744937 44.7881582,7.83017089 42.7432215,7.61314557 C41.9252468,7.55789241 41.3544873,7.50662658 40.1787911,7.4593481 L40.1787911,11.8551076 C40.1787911,14.1318797 38.6322722,15.978019 36.3549304,15.978019 C34.0787278,15.978019 32.5310696,14.1318797 32.5310696,11.8551076 L32.5310696,7.16143671 C26.6503101,7.02472785 20.7684114,7.02472785 14.8865127,7.16143671 L14.8865127,11.8551076 C14.8865127,14.1318797 13.3399937,15.978019 11.0626519,15.978019 C8.78644937,15.978019 7.23879114,14.1318797 7.23879114,11.8551076 L7.23879114,7.4593481 C6.06252532,7.50662658 5.49290506,7.55789241 4.6755,7.61314557 C2.62828481,7.83017089 0.956449367,9.49744937 0.741702532,11.5418165 C-0.00279113924,22.3549177 -0.00506962025,29.1390949 0.73828481,39.9516266 C0.954170886,41.9959937 2.61860127,43.6627025 4.66524684,43.8791582 C15.4783481,44.621943 31.9426519,44.621943 42.7551835,43.8791582 C44.798981,43.6627025 46.4668291,41.9959937 46.6838544,39.9516266 C47.4283481,29.1390949 47.4237911,22.3526392 46.6827152,11.5418165" id="Fill-60" fill="#6DA4D8"></path>
                    <path d="M11.1204114,13.8180759 C10.0347152,13.8180759 9.15579114,12.9397215 9.15579114,11.8551646 L9.15579114,2.25763291 C9.15579114,1.17364557 10.0347152,0.293582278 11.1204114,0.293582278 C12.2038291,0.293582278 13.0827532,1.17364557 13.0827532,2.25763291 L13.0827532,11.8551646 C13.0827532,12.9397215 12.2038291,13.8180759 11.1204114,13.8180759" id="Fill-63" fill="#A74080"></path>
                    <path d="M36.2938101,13.8180759 C35.2103924,13.8180759 34.3303291,12.9397215 34.3303291,11.8551646 L34.3303291,2.25763291 C34.3303291,1.17364557 35.2103924,0.293582278 36.2938101,0.293582278 C37.3783671,0.293582278 38.2572911,1.17364557 38.2572911,2.25763291 L38.2572911,11.8551646 C38.2572911,12.9397215 37.3783671,13.8180759 36.2938101,13.8180759" id="Fill-65" fill="#A74080"></path>
                    <path d="M12.5688987,23.1322215 L8.52573418,23.1322215 C7.44231646,23.1322215 6.56339241,22.2538671 6.56339241,21.1693101 C6.56339241,20.0853228 7.44231646,19.2063987 8.52573418,19.2063987 L12.5688987,19.2063987 C13.6523165,19.2063987 14.5323797,20.0853228 14.5323797,21.1693101 C14.5323797,22.2538671 13.6523165,23.1322215 12.5688987,23.1322215" id="Fill-67" fill="#FFFFFF"></path>
                    <path d="M12.5688987,31.2201456 L8.52573418,31.2201456 C7.44231646,31.2201456 6.56339241,30.3417911 6.56339241,29.2578038 C6.56339241,28.1732468 7.44231646,27.2943228 8.52573418,27.2943228 L12.5688987,27.2943228 C13.6523165,27.2943228 14.5323797,28.1732468 14.5323797,29.2578038 C14.5323797,30.3417911 13.6523165,31.2201456 12.5688987,31.2201456" id="Fill-69" fill="#FFFFFF"></path>
                    <path d="M12.5688987,39.3082975 L8.52573418,39.3082975 C7.44231646,39.3082975 6.56339241,38.4282342 6.56339241,37.3442468 C6.56339241,36.2602595 7.44231646,35.3801962 8.52573418,35.3801962 L12.5688987,35.3801962 C13.6523165,35.3801962 14.5323797,36.2602595 14.5323797,37.3442468 C14.5323797,38.4282342 13.6523165,39.3082975 12.5688987,39.3082975" id="Fill-71" fill="#FFFFFF"></path>
                    <path d="M25.728038,39.3082975 L21.6860127,39.3082975 C20.6014557,39.3082975 19.7213924,38.4282342 19.7213924,37.3442468 C19.7213924,36.2602595 20.6014557,35.3801962 21.6860127,35.3801962 L25.728038,35.3801962 C26.8114557,35.3801962 27.6926582,36.2602595 27.6926582,37.3442468 C27.6926582,38.4282342 26.8114557,39.3082975 25.728038,39.3082975" id="Fill-73" fill="#FFFFFF"></path>
                    <path d="M38.8871772,39.3082975 L34.8440127,39.3082975 C33.7594557,39.3082975 32.8816709,38.4282342 32.8816709,37.3442468 C32.8816709,36.2602595 33.7594557,35.3801962 34.8440127,35.3801962 L38.8871772,35.3801962 C39.9717342,35.3801962 40.8506582,36.2602595 40.8506582,37.3442468 C40.8506582,38.4282342 39.9717342,39.3082975 38.8871772,39.3082975" id="Fill-75" fill="#FFFFFF"></path>
                    <path d="M25.0675296,32.0439873 L20.5173275,24.8821519 C20.0619984,24.1706962 20.3202448,23.2564557 21.0974551,22.8360759 C21.8660161,22.4282278 22.8582258,22.6583544 23.3129371,23.3732278 L25.8737772,27.4038608 L34.638708,20.278481 C35.3108899,19.7379114 36.3364616,19.7960127 36.9301811,20.4129114 C37.522665,21.0320886 37.4577945,21.9753797 36.784377,22.5250633 L25.0675296,32.0439873 Z" id="Fill-77" fill="#FFFFFF"></path>
                </g>
                <g id="Group-88" transform="translate(37.000000, 125.000000)">
                    <path d="M45.0715955,41.1338427 C45.0766517,41.1788427 45.0796854,41.2253596 45.0796854,41.2718764 L45.0796854,43.4551348 C45.0796854,44.049236 44.6003596,44.5300787 44.0062584,44.5300787 L38.4747978,44.5300787 C38.3630562,44.5300787 38.2558652,44.5133933 38.1547416,44.4815393 C37.7183933,44.3460337 37.4013708,43.938 37.4013708,43.4551348 L37.4013708,41.5924382 L37.4013708,21.5239551 L37.4529438,21.4713708 C37.464573,21.4607528 37.4756966,21.4481124 37.4863146,21.4369888 C37.5050225,21.4172697 37.5237303,21.3975506 37.5404157,21.3778315 L37.5404157,21.3793483 L37.5404157,21.3778315 C37.5338427,21.3859213 37.5257528,21.3950225 37.5186742,21.403618 C37.5141236,21.4071573 37.5100787,21.4132247 37.5060337,21.4172697 C37.5464831,21.3763146 37.7274944,21.1953034 37.9433933,20.9788989 L42.688618,16.2331685 L42.6956966,16.2402472 L45.0083933,13.9270449 L45.0164831,13.9189551 L45.0271011,13.9088427 L45.0549101,30.9304719 L45.0715955,41.1338427 Z" id="Fill-87" fill="#6DA4D8"></path>
                    <path d="M27.4243652,31.4194551 L27.4243652,41.271927 L27.4243652,43.4551854 C27.4243652,44.0492865 27.9062191,44.5301292 28.4998146,44.5301292 L34.0307697,44.5301292 C34.6243652,44.5301292 35.1052079,44.0492865 35.1052079,43.4551854 L35.1052079,41.271927 L35.1052079,23.8195112 L27.9340281,30.9901854 C27.7747584,31.1494551 27.6048708,31.2920393 27.4243652,31.4194551" id="Fill-89" fill="#6DA4D8"></path>
                    <path d="M19.2939775,27.9082921 L17.4504944,29.7543034 L17.4504944,41.2717753 L17.4504944,43.4555393 C17.4504944,44.0481236 17.9303258,44.5289663 18.5239213,44.5289663 L24.0548764,44.5289663 C24.6494831,44.5289663 25.1303258,44.0481236 25.1303258,43.4555393 L25.1303258,41.2717753 L25.1303258,41.2702584 L25.1303258,32.1403146 C24.0892584,32.133236 23.1129101,31.7262135 22.377236,30.9910449 L19.2939775,27.9082921 Z" id="Fill-91" fill="#6DA4D8"></path>
                    <path d="M9.84524157,37.355764 L9.63591573,37.5539663 C9.60608427,37.5817753 9.47614045,37.709191 9.25872472,37.9271124 L7.47439888,39.7124494 L7.47439888,41.2717753 L7.47439888,43.4550337 C7.47439888,44.0491348 7.95423034,44.5299775 8.54782584,44.5299775 L14.0787809,44.5299775 C14.6733876,44.5299775 15.1542303,44.0491348 15.1542303,43.4550337 L15.1542303,41.2717753 L15.1542303,32.0493034 L10.1946236,37.0089101 C10.0586124,37.145427 9.93524157,37.2672809 9.84524157,37.355764" id="Fill-93" fill="#6DA4D8"></path>
                    <path d="M50.0359551,0.758730337 C49.8099438,0.479629213 49.433764,0.42047191 49.157191,0.42047191 C48.9923596,0.42047191 48.8133708,0.441707865 48.627809,0.481651685 L38.3880337,2.70080899 C37.7393258,2.84238202 37.4485955,3.0977191 37.3965169,3.27266292 C37.3429213,3.44861798 37.4516292,3.82075281 37.9218539,4.28895506 L40.3786517,6.7427191 L36.8413483,10.2810337 L26.2668539,20.8555281 L24.9158427,22.2055281 L20.0730337,17.3622135 C19.6462921,16.9359775 18.9541011,16.9359775 18.5288764,17.3622135 L18.1147753,17.7763146 L16.5220787,19.3690112 L3.40837079,32.4827191 L0.319550562,35.5715393 C0.0697752809,35.8218202 -0.0328651685,36.1626067 0.0106179775,36.4872135 C-0.0262921348,36.6899663 0.0328651685,36.9063708 0.191123596,37.0626067 L2.01589888,38.8888989 C2.0811236,38.953618 2.15747191,39.0011461 2.23735955,39.0335056 L2.32634831,39.1224944 C2.75258427,39.5477191 3.44325843,39.5477191 3.86949438,39.1224944 L18.5748876,24.4176067 L19.2999438,23.6920449 L21.9433146,26.3369326 C21.9761798,26.3692921 22.0105618,26.398618 22.0464607,26.426427 C22.073764,26.4618202 22.1025843,26.4967079 22.1359551,26.5290674 L24.143764,28.5363708 C24.5705056,28.9626067 25.2606742,28.9626067 25.6874157,28.5363708 L29.8173034,24.4069888 L40.3907865,13.833 L43.9321348,10.2921573 L46.3818539,12.7403596 C46.8819101,13.237382 47.2176404,13.275809 47.3081461,13.275809 C47.6383146,13.275809 47.8714045,12.735809 47.9730337,12.2721573 L50.1957303,2.04906742 C50.316573,1.49440449 50.2599438,1.03631461 50.0359551,0.758730337" id="Fill-95" fill="#A24684"></path>
                </g>
                <g id="Group-90" transform="translate(190.000000, 62.000000)">
                    <g id="Group-27" transform="translate(10.782178, 1.780495)">
                        <mask id="mask-2" fill="white">
                            <use xlink:href="#path-1"></use>
                        </mask>
                        <g id="Clip-26"></g>
                        <path d="M16.612151,0.916057426 L3.59463119,3.43688911 C2.31988366,3.61008713 1.26764109,5.01459208 1.13188366,6.70436436 C0.61384901,16.5014535 0.61384901,18.5240376 1.13286386,28.3361663 C1.26764109,30.0138099 2.31988366,31.4168594 3.57551733,31.5890871 L16.6263639,35.2757307 C17.8516114,35.0588693 18.8700371,33.6752257 19.0072649,32.016503 C19.5257896,22.1311168 19.5257896,14.0592158 19.0053045,4.16364158 C18.8685668,2.50928515 17.8432797,1.12224554 16.612151,0.916057426 L16.612151,0.916057426 Z M16.5788243,35.9874436 L3.43044802,32.2692653 C1.87928465,32.0601663 0.595715347,30.4213347 0.430061881,28.3812851 C-0.0904232673,18.5279188 -0.0904232673,16.4985426 0.430061881,6.6587604 C0.595715347,4.60706733 1.87928465,2.9677505 3.47896782,2.74991881 L16.5949975,0.209681188 L16.6523391,0.217928713 C18.2549629,0.438186139 19.5385322,2.07750297 19.7066361,4.11658218 C20.2295718,14.0480574 20.2295718,22.141305 19.7076163,32.0625921 C19.5385322,34.1118594 18.2559431,35.753602 16.6533193,35.9758 L16.5788243,35.9874436 Z" id="Fill-25" fill="#6DA3D7" mask="url(#mask-2)"></path>
                    </g>
                    <path d="M17.9216465,2.84743366 C16.6885574,2.84743366 15.4201812,2.93815644 12.8951911,3.11911683 C11.9649832,3.18509703 10.8642208,3.26369109 9.53654257,3.35441386 C8.36667624,3.47667129 7.3482505,4.48432475 7.21984455,5.6928297 C6.54105743,15.4802158 6.54105743,23.5079683 7.22474554,33.3492059 C7.3482505,34.5082257 8.36569604,35.5149089 9.58408218,35.6405624 C10.8686317,35.7264337 11.9703743,35.8055129 12.9010723,35.8724634 C17.9579139,36.2324436 17.9025327,36.2324436 22.9814287,35.868097 C23.9013446,35.8035723 24.9869139,35.7259485 26.2954782,35.636196 C27.467305,35.5149089 28.4857307,34.5072554 28.6156069,33.297295 C29.2943941,23.5079683 29.2943941,15.4802158 28.6126663,5.64285941 C28.4857307,4.4848099 27.4653446,3.47667129 26.2445079,3.35004752 C24.9829931,3.26466139 23.8964436,3.18606733 22.9740772,3.12105743 C20.433404,2.93864158 19.1581663,2.84743366 17.9216465,2.84743366 M17.9216465,38.9298693 C16.5880871,38.9298693 15.2893248,38.8372059 12.6991515,38.6518792 C11.7684535,38.585899 10.6716119,38.5068198 9.34295347,38.4170673 C6.73954752,38.1502356 4.68897327,36.1218297 4.41990891,33.5917802 C3.72298812,23.5627901 3.72298812,15.4253941 4.41500792,5.45122574 C4.68897327,2.87169109 6.73856733,0.843285149 9.29247327,0.577423762 C10.6676911,0.482819802 11.7640426,0.404225743 12.6922901,0.338730693 C17.8883198,-0.0319227723 17.968696,-0.0319227723 23.1779584,0.341156436 C24.0978743,0.406651485 25.1814832,0.483790099 26.4885772,0.573057426 C29.0905129,0.8428 31.1420673,2.87072079 31.4155426,5.39785941 C32.1134436,15.4253941 32.1134436,23.5627901 31.4214238,33.5413248 C31.1420673,36.1237703 29.0905129,38.1502356 26.5385673,38.4131861 C25.1839337,38.5058495 24.1022851,38.5829881 23.1833495,38.6489683 C20.5711218,38.8357505 19.2615772,38.9298693 17.9216465,38.9298693" id="Fill-28" fill="#6DA3D7"></path>
                    <path d="M14.132005,21.5879446 C13.3022673,21.5879446 12.6308317,20.9232911 12.6308317,20.1053307 C12.6308317,19.2854297 13.3022673,18.6236871 14.132005,18.6236871 C14.9563515,18.6236871 15.627297,19.2854297 15.627297,20.1053307 C15.627297,20.9232911 14.9563515,21.5879446 14.132005,21.5879446 M30.1386386,5.9263802 C29.9857277,4.06195446 28.818802,2.53955842 27.3877129,2.34355842 L14.3089307,4.87554851 C12.8788218,5.07009307 11.7138564,6.59103366 11.5629059,8.45691485 C11.0409505,18.319499 11.0409505,20.2673703 11.5629059,30.1338356 C11.7138564,31.9982614 12.8788218,33.5187168 14.3089307,33.715202 L27.3877129,37.4120337 C28.818802,37.2136079 29.9857277,35.6936376 30.1386386,33.8253307 C30.6576535,23.9612911 30.6576535,15.7884792 30.1386386,5.9263802" id="Fill-30" fill="#6DA3D7"></path>
                    <path d="M30.8537421,43.1181079 C29.8524698,42.1885634 27.9111876,41.4288208 26.5384203,41.4288208 L9.30065792,41.4288208 C7.92838069,41.4288208 5.98611832,42.1885634 4.98386584,43.1176228 L0.875365842,46.9284644 C-0.124926238,47.8584941 0.17844505,48.6182366 1.55023218,48.6182366 L34.2854153,48.6182366 C35.6591629,48.6182366 35.9625342,47.8584941 34.9622421,46.9284644 L30.8537421,43.1181079 Z" id="Fill-32" fill="#A74080"></path>
                </g>
                <g id="Group" transform="translate(122.000000, 119.000000)">
                    <path d="M49.601768,39.8380172 L37.7869241,39.8380172 L37.7869241,44.0370459 L19.7194774,44.0370459 L19.7194774,39.8380172 L5.61892801,39.8380172 L5.08237743,39.5706767 C3.25810544,38.6545898 1.77722582,37.8204873 0.568198504,37.0576757 C0.671931617,41.1497681 0.811434769,46.0403177 0.997438972,48.6139159 C1.13336512,49.9292313 2.3066224,51.0948361 3.71953894,51.2481113 C10.197493,51.6865498 18.7143393,51.9360676 27.603194,51.9360676 C36.4848947,51.9360676 45.001741,51.6865498 51.5726971,51.2374177 C52.8890346,51.0948361 54.0658689,49.9292313 54.212526,48.5283669 C54.3842222,45.9868496 54.5273024,40.9751057 54.6346125,36.8331096 C53.4363162,37.6529539 51.9733216,38.5476536 50.1705116,39.5279022 L49.601768,39.8380172 Z M4.52615332,33.5098885 C5.26659313,33.9447625 6.03922597,34.3796364 6.83332084,34.7895586 L48.2979501,34.7895586 C49.0276589,34.3796364 49.7537907,33.9447625 50.4369984,33.5098885 C51.860646,32.6080598 53.1304823,31.7026665 53.9710783,30.9861939 C54.3967417,30.6226108 54.7150951,30.3124957 54.8903683,30.070107 C54.8867913,29.542555 54.8760602,28.9936158 54.8689062,28.4624992 C54.8224052,23.8891938 54.614939,19.0556769 54.2035835,13.0708135 C54.0676574,11.755498 52.8908231,10.5863288 51.4779065,10.4366181 C44.9999525,9.99817958 36.4866832,9.75222628 27.6014055,9.75222628 C18.7161278,9.75222628 10.1992815,9.99817958 3.62117133,10.4473117 C2.3084109,10.5863288 1.13515362,11.755498 0.988496462,13.1563624 C0.580718017,19.0271606 0.380405799,23.8678066 0.32675074,28.4624992 C0.316019729,29.1504555 0.301711713,29.8491055 0.301711713,30.5263682 C0.412598834,30.6511271 0.641527084,30.8293541 0.823954283,30.9861939 C1.59658713,31.6563275 2.92007857,32.5652853 4.52615332,33.5098885 Z" id="Combined-Shape-Copy" fill="#639FD4"></path>
                    <path d="M17.4752651,7.34651792 C18.276514,8.09507142 19.4819643,8.26260482 20.4298704,7.61742299 C20.5729505,7.5211804 20.7589547,7.40355056 20.977152,7.27166257 C22.5188406,6.35201112 25.7345672,4.77648424 28.5389382,4.77648424 C31.4577734,4.77648424 34.5661898,6.50528636 35.8574882,7.30730797 C36.2366506,7.54256764 36.4798869,7.71010105 36.4870409,7.71723013 C36.9127044,8.01665153 37.3991769,8.16279769 37.8820724,8.16279769 C38.5187791,8.16279769 39.1125618,7.86337629 39.5739953,7.38572786 C39.6526893,7.30017889 39.7599995,7.26453349 39.8315395,7.16472635 C40.3323201,6.46964096 40.3609361,5.61058671 40.0568908,4.87272683 C39.8959256,4.47349829 39.6598433,4.10635063 39.2878349,3.83901009 C39.0660607,3.68217031 33.879405,0 28.5389382,0 C23.2270874,0 17.9653147,3.51463691 17.7399634,3.66434761 C17.307146,3.95663993 17.0424477,4.3772557 16.8743285,4.83351688 C16.6203612,5.52860228 16.6525543,6.31993026 17.1032567,6.97937025 C17.2034129,7.12908095 17.35007,7.22888808 17.4752651,7.34651792" id="Fill-7" fill="#A24684"></path>
                </g>
                <g id="Group-84" transform="translate(214.000000, 125.000000)">
                    <g id="Group-76">
                        <path d="M46.5025171,11.8892563 C46.2832133,9.84318038 44.6068209,8.17761076 42.560745,7.96058544 C41.7433399,7.90476266 41.1714412,7.85463608 39.9951754,7.80621835 L39.9951754,12.2014082 C39.9951754,14.4781804 38.4486564,16.3254589 36.1724538,16.3254589 C33.8939728,16.3254589 32.3485931,14.4781804 32.3485931,12.2014082 L32.3485931,7.50716772 C26.4678336,7.37102848 20.5847956,7.37102848 14.7040361,7.50716772 L14.7040361,12.2014082 C14.7040361,14.4781804 13.1575171,16.3254589 10.8801754,16.3254589 C8.60283359,16.3254589 7.05745385,14.4781804 7.05745385,12.2014082 L7.05745385,7.80621835 C5.8806184,7.85463608 5.30985891,7.90476266 4.49302347,7.96058544 C2.44694752,8.17761076 0.773972832,9.84318038 0.556947516,11.8892563 C-0.184128433,22.701788 -0.186406914,29.4871044 0.554669035,40.2984968 C0.771694351,42.3434335 2.43612473,44.0095728 4.48163106,44.2248892 C15.2947323,44.9693829 31.7590361,44.9693829 42.5732766,44.2248892 C44.6153652,44.0095728 46.2832133,42.3434335 46.5025171,40.2984968 C47.2470108,29.4871044 47.2401754,22.6989399 46.5025171,11.8892563 Z M12.3842576,23.4799462 L8.34337157,23.4799462 C7.25995385,23.4799462 6.37989055,22.6004525 6.37989055,21.5164652 C6.37989055,20.4319082 7.25995385,19.5524146 8.34337157,19.5524146 L12.3842576,19.5524146 C13.4688146,19.5524146 14.3488779,20.4319082 14.3488779,21.5164652 C14.3488779,22.6004525 13.4688146,23.4799462 12.3842576,23.4799462 Z M12.3842576,31.5675854 L8.34337157,31.5675854 C7.25995385,31.5675854 6.37989055,30.6880918 6.37989055,29.6041044 C6.37989055,28.5201171 7.25995385,27.641193 8.34337157,27.641193 L12.3842576,27.641193 C13.4688146,27.641193 14.3488779,28.5201171 14.3488779,29.6041044 C14.3488779,30.6880918 13.4688146,31.5675854 12.3842576,31.5675854 Z M12.3842576,39.6538006 L8.34337157,39.6538006 C7.25995385,39.6538006 6.37989055,38.7754462 6.37989055,37.6908892 C6.37989055,36.6057627 7.25995385,35.7268386 8.34337157,35.7268386 L12.3842576,35.7268386 C13.4688146,35.7268386 14.3488779,36.6057627 14.3488779,37.6908892 C14.3488779,38.7754462 13.4688146,39.6538006 12.3842576,39.6538006 Z M25.5445361,23.4799462 L21.50365,23.4799462 C20.4179538,23.4799462 19.540169,22.6004525 19.540169,21.5164652 C19.540169,20.4319082 20.4179538,19.5524146 21.50365,19.5524146 L25.5445361,19.5524146 C26.6302323,19.5524146 27.5091564,20.4319082 27.5091564,21.5164652 C27.5091564,22.6004525 26.6302323,23.4799462 25.5445361,23.4799462 Z M25.5445361,39.6538006 L21.50365,39.6538006 C20.4179538,39.6538006 19.540169,38.7754462 19.540169,37.6908892 C19.540169,36.6057627 20.4179538,35.7268386 21.50365,35.7268386 L25.5445361,35.7268386 C26.6302323,35.7268386 27.5091564,36.6057627 27.5091564,37.6908892 C27.5091564,38.7754462 26.6302323,39.6538006 25.5445361,39.6538006 Z M38.7047576,23.4799462 L34.6615931,23.4799462 C33.5781754,23.4799462 32.7003906,22.6004525 32.7003906,21.5164652 C32.7003906,20.4319082 33.5781754,19.5524146 34.6615931,19.5524146 L38.7047576,19.5524146 C39.7893146,19.5524146 40.6670994,20.4319082 40.6670994,21.5164652 C40.6670994,22.6004525 39.7893146,23.4799462 38.7047576,23.4799462 Z M38.7047576,31.5675854 L34.6615931,31.5675854 C33.5781754,31.5675854 32.7003906,30.6880918 32.7003906,29.6041044 C32.7003906,28.5201171 33.5781754,27.641193 34.6615931,27.641193 L38.7047576,27.641193 C39.7893146,27.641193 40.6670994,28.5201171 40.6670994,29.6041044 C40.6670994,30.6880918 39.7893146,31.5675854 38.7047576,31.5675854 Z M38.7047576,39.6538006 L34.6615931,39.6538006 C33.5781754,39.6538006 32.7003906,38.7754462 32.7003906,37.6908892 C32.7003906,36.6057627 33.5781754,35.7268386 34.6615931,35.7268386 L38.7047576,35.7268386 C39.7893146,35.7268386 40.6670994,36.6057627 40.6670994,37.6908892 C40.6670994,38.7754462 39.7893146,39.6538006 38.7047576,39.6538006 Z" id="Combined-Shape" fill="#6DA4D8"></path>
                        <g id="Group-38" transform="translate(8.544304, 0.000000)">
                            <mask id="mask-4" fill="white">
                                <use xlink:href="#path-3"></use>
                            </mask>
                            <g id="Clip-37"></g>
                            <path d="M2.19001899,13.7117848 C1.10660127,13.7117848 0.226537975,12.8328608 0.226537975,11.7477342 L0.226537975,2.15134177 C0.226537975,1.06564557 1.10660127,0.187860759 2.19001899,0.187860759 C3.27457595,0.187860759 4.15463924,1.06564557 4.15463924,2.15134177 L4.15463924,11.7477342 C4.15463924,12.8328608 3.27457595,13.7117848 2.19001899,13.7117848" id="Fill-36" fill="#A74080" mask="url(#mask-4)"></path>
                        </g>
                        <g id="Group-41" transform="translate(34.177215, 0.000000)">
                            <mask id="mask-6" fill="white">
                                <use xlink:href="#path-5"></use>
                            </mask>
                            <g id="Clip-40"></g>
                            <path d="M2.30018354,13.7117848 C1.21676582,13.7117848 0.337841772,12.8328608 0.337841772,11.7477342 L0.337841772,2.15134177 C0.337841772,1.06564557 1.21676582,0.187860759 2.30018354,0.187860759 C3.38587975,0.187860759 4.2648038,1.06564557 4.2648038,2.15134177 L4.2648038,11.7477342 C4.2648038,12.8328608 3.38587975,13.7117848 2.30018354,13.7117848" id="Fill-39" fill="#A74080" mask="url(#mask-6)"></path>
                        </g>
                        <path d="M25.9410759,31.2681646 L21.9001899,31.2681646 C20.8144937,31.2681646 19.9367089,30.3886709 19.9367089,29.3046835 C19.9367089,28.2206962 20.8144937,27.3417722 21.9001899,27.3417722 L25.9410759,27.3417722 C27.0267722,27.3417722 27.9056962,28.2206962 27.9056962,29.3046835 C27.9056962,30.3886709 27.0267722,31.2681646 25.9410759,31.2681646" id="Fill-50" fill="#FFFFFF"></path>
                    </g>
                </g>
                <path d="M124.023808,120.045523 L115,111" id="Line-Copy-2" stroke="#A73F7F" stroke-width="4" stroke-linecap="round"></path>
                <path d="M176,123.045523 L185.023808,114" id="Line-Copy-3" stroke="#A73F7F" stroke-width="4" stroke-linecap="round"></path>
                <g id="Page-1" transform="translate(156.555556, 228.000000) scale(-1, 1) translate(-156.555556, -228.000000) translate(138.555556, 203.000000)">
                    <path d="M12.0378433,33.3737102 L17.3995152,14.0714423 C17.6055758,13.326947 17.1667879,12.5559487 16.417697,12.3511523 C15.6710303,12.1391277 14.8928485,12.5800424 14.6867879,13.326947 L9.60899668,31.6085599 L5.73187879,30.5361115 C4.97066667,30.3313151 4.15854545,30.7698204 3.94036364,31.5408187 L0.0543030303,45.401923 C-0.0499393939,45.7705566 -0.00145454545,46.1656933 0.187636364,46.5005956 C0.376727273,46.835498 0.691878788,47.0788444 1.06521212,47.1824473 L6.30642424,48.6352973 C6.43490909,48.6690284 6.56824242,48.6883034 6.69672727,48.6883034 C7.33430303,48.6883034 7.91854545,48.2690731 8.09793939,47.6305901 L11.984,33.7694858 C12.0205811,33.6392782 12.0383542,33.5061036 12.0378433,33.3737102 Z" id="Combined-Shape" fill="#A8407F"></path>
                    <path d="M19.321697,34.1217356 L14.2453333,15.5238104 C13.8065455,13.5047585 15.142303,11.859159 17.2271515,11.8663871 L32.1847273,11.9218026 C34.262303,11.93144 35.6392727,13.5963146 35.241697,15.6274133 L30.7350303,34.1072794 L19.321697,34.1217356 Z" id="Fill-1" fill="#6DA4D8"></path>
                    <g id="Group-5" transform="translate(19.090909, 27.364176)">
                        <mask id="mask-8" fill="white">
                            <use xlink:href="#path-7"></use>
                        </mask>
                        <g id="Clip-4"></g>
                        <path d="M5.25915152,18.8631969 C5.25915152,20.4172404 4.08339394,21.6845689 2.64581818,21.6845689 C1.20824242,21.6845689 0.0324848485,20.4172404 0.0324848485,18.8631969 L0.0324848485,2.93485332 C0.0324848485,1.38080982 1.20824242,0.113481316 2.64581818,0.113481316 C4.08339394,0.113481316 5.25915152,1.38080982 5.25915152,2.93485332 L5.25915152,18.8631969 Z" id="Fill-3" fill="#6DA4D8" mask="url(#mask-8)"></path>
                    </g>
                    <g id="Group-8" transform="translate(25.151515, 27.364176)">
                        <mask id="mask-10" fill="white">
                            <use xlink:href="#path-9"></use>
                        </mask>
                        <g id="Clip-7"></g>
                        <path d="M5.48654545,18.8631969 C5.48654545,20.4172404 4.31078788,21.6845689 2.87321212,21.6845689 C1.43563636,21.6845689 0.259878788,20.4172404 0.259878788,18.8631969 L0.259878788,2.93485332 C0.259878788,1.38080982 1.43563636,0.113481316 2.87321212,0.113481316 C4.31078788,0.113481316 5.48654545,1.38080982 5.48654545,2.93485332 L5.48654545,18.8631969 Z" id="Fill-6" fill="#6DA4D8" mask="url(#mask-10)"></path>
                    </g>
                    <g id="Group-11" transform="translate(20.000000, 0.258766)">
                        <mask id="mask-12" fill="white">
                            <use xlink:href="#path-11"></use>
                        </mask>
                        <g id="Clip-10"></g>
                        <path d="M9.60581818,4.67297267 C9.60581818,2.11422197 7.52339394,0.042163971 4.94642424,0.042163971 C2.37430303,0.042163971 0.287030303,2.11422197 0.287030303,4.67297267 C0.287030303,7.23172337 2.37430303,9.30378137 4.94642424,9.30378137 C7.52339394,9.30378137 9.60581818,7.23172337 9.60581818,4.67297267" id="Fill-9" fill="#6DA4D8" mask="url(#mask-12)"></path>
                    </g>
                </g>
            </g>
        </g>
    </g>
</svg>