<?xml version="1.0" encoding="iso-8859-1"?>
<!-- Generator: Adobe Illustrator 19.0.0, SVG Export Plug-In . SVG Version: 6.00 Build 0)  -->
<svg version="1.1" id="Capa_1" xmlns="http://www.w3.org/2000/svg" xmlns:xlink="http://www.w3.org/1999/xlink" x="0px" y="0px"
	 viewBox="0 0 512 512" style="enable-background:new 0 0 512 512;" xml:space="preserve">
<circle style="fill:#662E57;" cx="256" cy="256" r="256"/>
<path style="fill:#590F38;" d="M512,256c0-18.683-2.02-36.892-5.82-54.437l-69.416-69.416l-71.883,152.952l-138.11-138.11
	L88.337,319.814l191.107,191.107C409.838,499.08,512,389.48,512,256z"/>
<circle style="fill:#F2D99C;" cx="277.62" cy="190.24" r="21.6"/>
<circle style="fill:#D1BC8C;" cx="429.19" cy="190.24" r="21.6"/>
<path style="fill:#F2D99C;" d="M438.981,435.011c25.66-26.225,45.724-57.939,58.272-93.222
	c-6.232-12.54-18.416-21.701-33.127-23.583l-70.257-8.987c-8.625-1.104-15.086-8.444-15.086-17.139v-31.866H328.03v31.866
	c0,8.695-6.461,16.036-15.086,17.139l-70.257,8.987c-21.506,2.751-37.617,21.055-37.617,42.736v32.568
	c38.644,36.665,90.862,59.163,148.337,59.163C383.813,452.672,412.748,446.372,438.981,435.011z"/>
<path style="fill:#D1BC8C;" d="M464.126,318.206l-70.257-8.987c-8.625-1.104-15.086-8.444-15.086-17.139v-31.866h-25.807v192.454
	c0.144,0,0.286,0.005,0.43,0.005c30.408,0,59.342-6.301,85.575-17.662c25.66-26.225,45.724-57.939,58.272-93.222
	C491.02,329.249,478.837,320.087,464.126,318.206z"/>
<path style="fill:#FFECB3;" d="M394.802,273.435l-11.926,6.421c-18.325,9.867-40.381,9.867-58.706,0l-11.926-6.421
	c-22.022-11.858-35.756-34.851-35.756-59.863V170.29c0-42.545,34.489-77.034,77.034-77.034l0,0
	c42.545,0,77.034,34.489,77.034,77.034v43.282C430.557,238.584,416.824,261.577,394.802,273.435z"/>
<path style="fill:#FFD863;" d="M353.523,93.256L353.523,93.256c-0.184,0-0.364,0.012-0.547,0.014v193.979
	c10.277,0.091,20.572-2.369,29.9-7.392l11.925-6.421c22.022-11.858,35.756-34.851,35.756-59.863V170.29
	C430.557,127.745,396.068,93.256,353.523,93.256z"/>
<path style="fill:#E0E0E0;" d="M256,512c111.291,0,205.979-71.024,241.252-170.211c-6.232-12.54-18.416-21.701-33.127-23.583
	l-59.461-7.606c-12.82,13.675-31.035,22.231-51.259,22.231s-38.439-8.556-51.259-22.232l-59.461,7.606
	c-21.506,2.751-37.617,21.055-37.617,42.736v145.985C221.53,510.249,238.56,512,256,512z"/>
<path style="fill:#C0C0C0;" d="M497.252,341.789c-6.232-12.54-18.416-21.701-33.127-23.583l-59.461-7.606
	c-12.82,13.675-31.035,22.231-51.259,22.231v159.967C420.273,465.262,472.91,410.238,497.252,341.789z"/>
<path style="fill:#758F9B;" d="M398.385,170.52c5.248,6.081,11.529,12.108,18.559,16.484c7.97,4.962,12.733,13.762,12.733,23.15
	v12.21c7.473,0,13.531-6.058,13.531-13.531v-47.017c0-8.182-1.097-16.107-3.151-23.638c-2.645-9.698-14.012-14.02-22.44-8.54
	c-9.374,6.095-16.892,14.801-21.524,25.09C393.726,159.988,394.618,166.154,398.385,170.52z"/>
<g>
	<path style="fill:#C0C0C0;" d="M308.427,170.52c-5.248,6.081-11.529,12.108-18.559,16.484c-7.97,4.962-12.733,13.762-12.733,23.15
		v12.21c-7.473,0-13.531-6.058-13.531-13.531v-47.017c0-8.182,1.097-16.107,3.151-23.638c2.645-9.698,14.012-14.02,22.44-8.54
		c9.374,6.095,16.892,14.801,21.523,25.09C313.086,159.988,312.194,166.154,308.427,170.52z"/>
	<path style="fill:#C0C0C0;" d="M373.347,217.511c-5.361-5.361-14.052-5.361-19.412,0c-0.306,0.306-0.59,0.626-0.861,0.953
		c-0.271-0.327-0.555-0.647-0.861-0.953c-5.361-5.361-14.052-5.361-19.412,0c-5.361,5.361-29.773,29.264-29.773,29.264
		c5.361,5.361,31.826,7.531,49.186-9.851c0.306-0.307,0.59-0.627,0.861-0.954c0.271,0.327,0.555,0.648,0.861,0.954
		c17.359,17.383,43.825,15.212,49.186,9.851C403.12,246.774,378.707,222.871,373.347,217.511z"/>
</g>
<path style="fill:#758F9B;" d="M353.073,235.969c0.271,0.327,0.555,0.647,0.861,0.954c17.359,17.383,43.825,15.212,49.186,9.851
	c0,0-24.413-23.903-29.773-29.264c-5.361-5.361-14.052-5.361-19.412,0c-0.306,0.306-0.59,0.626-0.861,0.953L353.073,235.969z"/>
<path style="fill:#C0C0C0;" d="M110.129,326.305h99.628c22.015,0,39.862-17.847,39.862-39.862v-67.432
	c0-22.015-17.847-39.862-39.862-39.862h-99.628c-22.015,0-39.862,17.847-39.862,39.862v67.432
	C70.267,308.458,88.114,326.305,110.129,326.305z"/>
<path style="fill:#758F9B;" d="M209.757,179.149h-50.234v147.155h50.234c22.015,0,39.862-17.847,39.862-39.862V219.01
	C249.619,196.996,231.773,179.149,209.757,179.149z"/>
<path style="fill:#F2D99C;" d="M255.358,363.471l-60.619-7.754c-7.442-0.952-13.017-7.286-13.017-14.788v-27.495h-43.791v27.495
	c0,7.502-5.575,13.836-13.017,14.788l-60.619,7.754c-13.262,1.696-24.143,10.25-29.274,21.821
	c29.993,51.151,77.226,90.964,133.734,111.448c44.491-1.813,85.501-17.119,119.062-41.925v-54.469
	C287.816,381.637,273.914,365.844,255.358,363.471z"/>
<path style="fill:#DDC692;" d="M255.358,363.471l-60.619-7.754c-7.442-0.952-13.017-7.286-13.017-14.788v-27.495h-22.198v179.743
	c3.049,1.242,6.123,2.437,9.23,3.563c44.491-1.813,85.501-17.119,119.062-41.925v-54.469
	C287.816,381.637,273.914,365.844,255.358,363.471z"/>
<path id="SVGCleanerId_0" style="fill:#FFECB3;" d="M201.222,317.684l-11.926,6.421c-18.325,9.867-40.381,9.867-58.706,0
	l-11.925-6.421c-22.022-11.858-35.756-34.851-35.756-59.863v-73.559h154.069v73.559
	C236.978,282.833,223.244,305.825,201.222,317.684z"/>
<g>
	<path id="SVGCleanerId_0_1_" style="fill:#FFECB3;" d="M201.222,317.684l-11.926,6.421c-18.325,9.867-40.381,9.867-58.706,0
		l-11.925-6.421c-22.022-11.858-35.756-34.851-35.756-59.863v-73.559h154.069v73.559
		C236.978,282.833,223.244,305.825,201.222,317.684z"/>
</g>
<path style="fill:#FFD863;" d="M159.524,184.261v147.238c10.235,0.069,20.483-2.392,29.773-7.394l11.925-6.421
	c22.023-11.858,35.756-34.851,35.756-59.863v-73.559h-77.454V184.261z"/>
<path style="fill:#758F9A;" d="M255.358,363.471l-51.304-6.563c-11.061,11.799-26.778,19.182-44.228,19.182
	s-33.166-7.383-44.228-19.182l-51.304,6.563c-13.262,1.696-24.143,10.25-29.274,21.821C79.466,461.092,161.782,512,256,512
	c10.774,0,21.391-0.674,31.816-1.967V400.344C287.816,381.637,273.914,365.844,255.358,363.471z"/>
<path style="fill:#4B7689;" d="M255.358,363.471l-51.304-6.563c-11.061,11.799-26.778,19.182-44.228,19.182
	c-0.102,0-0.201-0.008-0.303-0.008v117.106C189.298,505.314,221.867,512,256,512c10.774,0,21.391-0.674,31.816-1.967V400.344
	C287.816,381.637,273.914,365.844,255.358,363.471z"/>
<path style="fill:#E0E0E0;" d="M159.626,117.104c-49.562,0.171-89.359,41.087-89.359,90.649v80.211l10.501-24.921
	c3.023-7.173,4.58-14.879,4.58-22.663v-5.117c12.448-6.949,74.478-47.051,74.478-47.051s46.144,25.842,74.712,47.143v5.025
	c0,7.784,1.557,15.49,4.58,22.663l10.501,24.921v-81.185C249.619,157.147,209.298,116.932,159.626,117.104z"/>
<path style="fill:#C0C0C0;" d="M159.626,117.104c-0.034,0-0.068,0.001-0.102,0.002v71.302c0.192-0.124,0.303-0.196,0.303-0.196
	s46.144,25.842,74.711,47.144v5.024c0,7.784,1.557,15.49,4.58,22.663l10.501,24.921v-81.185
	C249.619,157.147,209.298,116.932,159.626,117.104z"/>
<path style="fill:#4B7689;" d="M159.826,394.938c25.343,0,47.206-14.866,57.366-36.35l-13.139-1.681
	c-11.061,11.799-26.778,19.182-44.228,19.182s-33.166-7.383-44.228-19.182l-13.139,1.681
	C112.621,380.072,134.484,394.938,159.826,394.938z"/>
<path style="fill:#175D76;" d="M204.054,356.908c-11.061,11.799-26.778,19.182-44.228,19.182c-0.102,0-0.201-0.008-0.303-0.008
	v18.851c0.101,0,0.201,0.006,0.302,0.006c25.343,0,47.206-14.866,57.366-36.35L204.054,356.908z"/>
<g>
</g>
<g>
</g>
<g>
</g>
<g>
</g>
<g>
</g>
<g>
</g>
<g>
</g>
<g>
</g>
<g>
</g>
<g>
</g>
<g>
</g>
<g>
</g>
<g>
</g>
<g>
</g>
<g>
</g>
</svg>
