<?xml version="1.0" encoding="iso-8859-1"?>
<!-- Generator: Adobe Illustrator 19.0.0, SVG Export Plug-In . SVG Version: 6.00 Build 0)  -->
<svg xmlns="http://www.w3.org/2000/svg" xmlns:xlink="http://www.w3.org/1999/xlink" version="1.1" id="Capa_1" x="0px" y="0px" viewBox="0 0 512.001 512.001" style="enable-background:new 0 0 512.001 512.001;" xml:space="preserve" width="512px" height="512px">
<g>
	<g>
		<path d="M510.24,249.597c-7.046-11.852-14.794-23.272-23.029-33.941c-2.538-3.288-7.257-3.893-10.546-1.357    c-3.286,2.537-3.894,7.258-1.357,10.545c7.569,9.805,14.71,20.281,21.242,31.156c-27.411,45.654-63.294,81.366-106.666,106.152    c-15.357,8.776-31.476,15.997-48.094,21.594c41.072-27.672,68.14-74.607,68.14-127.746c0-53.108-27.036-100.02-68.066-127.698    c35.494,11.997,68.758,31.436,97.629,57.655c3.072,2.792,7.829,2.563,10.619-0.511c2.792-3.073,2.563-7.829-0.511-10.62    c-64.796-58.847-150.63-85.311-235.492-72.612c-42.412,6.347-82.148,21.888-118.105,46.192    c-37.809,25.555-69.518,59.6-94.245,101.194c-2.346,3.947-2.346,8.853,0.002,12.803c28.851,48.53,66.834,86.482,112.896,112.805    c43.155,24.662,92.031,37.697,141.344,37.697s98.189-13.035,141.344-37.697c46.061-26.323,84.045-64.275,112.895-112.804    C512.588,258.453,512.588,253.547,510.24,249.597z M117.106,256c0-3.712,0.147-7.46,0.44-11.141    c0.329-4.139-2.761-7.76-6.899-8.089c-4.138-0.331-7.761,2.761-8.089,6.899c-0.323,4.075-0.487,8.225-0.487,12.331    c0,53.14,27.068,100.074,68.139,127.746c-16.617-5.597-32.736-12.818-48.091-21.593C78.741,337.365,42.862,301.656,15.451,256    c23.473-39.091,53.402-71.095,88.974-95.137c20.68-13.977,42.681-24.875,65.755-32.645    c-22.479,15.121-40.591,35.845-52.504,60.175c-1.825,3.729-0.283,8.232,3.446,10.058c3.728,1.825,8.233,0.283,10.058-3.446    c11.267-23.012,28.67-42.465,50.329-56.256c22.238-14.16,47.997-21.645,74.492-21.645c76.586,0,138.894,62.308,138.894,138.895    S332.588,394.895,256,394.895S117.106,332.587,117.106,256z" fill="#006DF0"/>
	</g>
</g>
<g>
	<g>
		<path d="M315.708,228.365c0-19.26-15.668-34.928-34.928-34.928c-10.312,0-19.591,4.495-25.99,11.624    c-0.574-0.018-1.149-0.039-1.728-0.039c-31.304,0-56.77,25.467-56.77,56.77s25.466,56.771,56.769,56.771s56.77-25.467,56.77-56.77    c0-4.191-0.469-8.272-1.337-12.205C313.013,243.7,315.708,236.343,315.708,228.365z M253.06,303.527    c-23.012,0-41.734-18.723-41.734-41.734c0.001-20.867,15.394-38.205,35.42-41.257c-0.579,2.519-0.896,5.137-0.896,7.83    c0,19.259,15.669,34.928,34.929,34.928c4.973,0,9.702-1.052,13.988-2.933c0.016,0.476,0.027,0.952,0.027,1.432    C294.795,284.805,276.072,303.527,253.06,303.527z M280.779,248.257c-10.969,0-19.893-8.923-19.893-19.892    c0-10.969,8.924-19.892,19.893-19.892c10.968,0,19.892,8.923,19.892,19.892C300.672,239.333,291.748,248.257,280.779,248.257z" fill="#006DF0"/>
	</g>
</g>
<g>
	<g>
		<path d="M256,1.138c-4.153,0-7.518,3.366-7.518,7.518v27.591c0,4.152,3.366,7.518,7.518,7.518c4.153,0,7.518-3.366,7.518-7.518    V8.656C263.518,4.504,260.153,1.138,256,1.138z" fill="#006DF0"/>
	</g>
</g>
<g>
	<g>
		<path d="M256,468.237c-4.153,0-7.518,3.366-7.518,7.518v27.591c0,4.152,3.365,7.518,7.518,7.518c4.153,0,7.518-3.366,7.518-7.518    v-27.591C263.518,471.602,260.153,468.237,256,468.237z" fill="#006DF0"/>
	</g>
</g>
<g>
	<g>
		<path d="M152.634,61.928l-13.796-23.894c-2.077-3.596-6.675-4.828-10.269-2.752c-3.596,2.076-4.828,6.674-2.752,10.269    l13.796,23.894c1.393,2.412,3.919,3.76,6.518,3.76c1.275,0,2.569-0.325,3.752-1.008C153.478,70.122,154.71,65.524,152.634,61.928z    " fill="#006DF0"/>
	</g>
</g>
<g>
	<g>
		<path d="M386.184,466.448l-13.796-23.894c-2.077-3.597-6.675-4.828-10.269-2.752c-3.596,2.076-4.828,6.674-2.752,10.269    l13.796,23.894c1.393,2.412,3.919,3.76,6.518,3.76c1.275,0,2.569-0.325,3.752-1.008    C387.028,474.641,388.26,470.043,386.184,466.448z" fill="#006DF0"/>
	</g>
</g>
<g>
	<g>
		<path d="M69.447,139.613l-23.895-13.796c-3.599-2.077-8.195-0.844-10.269,2.752c-2.076,3.596-0.844,8.194,2.752,10.269    l23.895,13.796c1.185,0.684,2.477,1.008,3.752,1.008c2.598,0,5.125-1.349,6.518-3.76    C74.275,146.287,73.043,141.689,69.447,139.613z" fill="#006DF0"/>
	</g>
</g>
<g>
	<g>
		<path d="M473.967,373.161l-23.895-13.795c-3.599-2.077-8.195-0.844-10.269,2.752c-2.076,3.596-0.844,8.193,2.752,10.269    l23.895,13.796c1.185,0.684,2.477,1.008,3.752,1.008c2.598,0,5.125-1.349,6.518-3.76    C478.795,379.835,477.563,375.237,473.967,373.161z" fill="#006DF0"/>
	</g>
</g>
<g>
	<g>
		<path d="M72.199,362.118c-2.075-3.597-6.676-4.828-10.269-2.752l-23.895,13.796c-3.596,2.076-4.828,6.674-2.752,10.269    c1.392,2.412,3.919,3.76,6.518,3.76c1.275,0,2.569-0.325,3.752-1.008l23.895-13.796C73.043,370.312,74.275,365.714,72.199,362.118    z" fill="#006DF0"/>
	</g>
</g>
<g>
	<g>
		<path d="M476.719,128.569c-2.075-3.596-6.676-4.827-10.269-2.752l-23.895,13.795c-3.596,2.076-4.827,6.674-2.752,10.269    c1.391,2.413,3.919,3.761,6.518,3.761c1.275,0,2.569-0.325,3.752-1.008l23.895-13.796    C477.563,136.763,478.795,132.165,476.719,128.569z" fill="#006DF0"/>
	</g>
</g>
<g>
	<g>
		<path d="M149.883,439.802c-3.598-2.077-8.195-0.844-10.269,2.752l-13.796,23.894c-2.076,3.596-0.844,8.194,2.752,10.269    c1.185,0.684,2.477,1.008,3.752,1.008c2.598,0,5.125-1.348,6.518-3.76l13.796-23.894    C154.711,446.476,153.478,441.878,149.883,439.802z" fill="#006DF0"/>
	</g>
</g>
<g>
	<g>
		<path d="M383.433,35.283c-3.598-2.077-8.195-0.845-10.269,2.752l-13.797,23.894c-2.076,3.596-0.843,8.195,2.753,10.269    c1.185,0.684,2.477,1.008,3.752,1.008c2.598,0,5.125-1.349,6.518-3.76l13.796-23.894C388.26,41.957,387.028,37.359,383.433,35.283    z" fill="#006DF0"/>
	</g>
</g>
<g>
</g>
<g>
</g>
<g>
</g>
<g>
</g>
<g>
</g>
<g>
</g>
<g>
</g>
<g>
</g>
<g>
</g>
<g>
</g>
<g>
</g>
<g>
</g>
<g>
</g>
<g>
</g>
<g>
</g>
</svg>
