<?xml version="1.0" encoding="iso-8859-1"?>
<!-- Generator: Adobe Illustrator 19.0.0, SVG Export Plug-In . SVG Version: 6.00 Build 0)  -->
<svg xmlns="http://www.w3.org/2000/svg" xmlns:xlink="http://www.w3.org/1999/xlink" version="1.1" id="Capa_1" x="0px" y="0px" viewBox="0 0 512.002 512.002" style="enable-background:new 0 0 512.002 512.002;" xml:space="preserve" width="512px" height="512px">
<g>
	<g>
		<path d="M506.611,205.696c-5.391-5.782-12.851-10.552-18.94-15.585c-17.416-14.409-34.831-28.827-52.247-43.237    c-1.15-0.954-9.589-6.37-9.589-7.937V68.645h59.613c4.701,0,8.516-3.807,8.516-8.516V43.097c0-23.479-19.102-42.581-42.581-42.581    H127.77c-23.479,0-42.581,19.102-42.581,42.581v95.841c-12.808,10.603-25.625,21.205-38.433,31.808    c-9.342,7.733-18.676,15.457-28.01,23.189c-11.727,9.708-19.264,14.46-18.719,30.539c0.221,6.66,0,13.37,0,20.03    c0,20.234,0,40.469,0,60.712c0,47.384,0,94.759,0,142.143c0,18.54,0,37.071,0,55.611c0,1.03,0.247,2.01,0.596,2.938    c0.094,0.247,0.187,0.485,0.307,0.724c0.375,0.784,0.843,1.507,1.439,2.138c0.077,0.085,0.128,0.179,0.204,0.264    c0.562,0.554,1.201,1.047,1.916,1.431c0.153,0.085,0.332,0.119,0.494,0.187c0.204,0.094,0.409,0.162,0.622,0.238    c0.954,0.358,1.942,0.596,2.938,0.596h493.937c0.996,0,1.984-0.238,2.938-0.596c0.213-0.077,0.417-0.145,0.613-0.238    c0.162-0.077,0.332-0.102,0.494-0.187c0.715-0.383,1.354-0.877,1.916-1.431c0.077-0.077,0.128-0.179,0.204-0.264    c0.596-0.639,1.065-1.354,1.439-2.138c0.128-0.239,0.23-0.468,0.315-0.724c0.349-0.937,0.596-1.908,0.596-2.938    c0-25.089,0-50.169,0-75.257c0-46.498,0-92.988,0-139.486c0-15.423,0-30.854,0-46.277    C510.997,230.452,515.136,214.851,506.611,205.696z M425.836,43.097c0-14.086,11.463-25.548,25.548-25.548    c14.086,0,25.548,11.463,25.548,25.548v8.516h-51.097V43.097z M425.836,161.054l52.996,43.85h-52.996V161.054z M425.836,221.936    h53.124l-53.124,44.267V221.936z M340.674,43.097h34.065c4.701,0,8.516,3.807,8.516,8.516s-3.815,8.516-8.516,8.516h-34.065    c-4.701,0-8.516-3.807-8.516-8.516S335.973,43.097,340.674,43.097z M383.255,85.678c0,4.709-3.815,8.516-8.516,8.516h-68.129    c-4.701,0-8.516-3.807-8.516-8.516s3.815-8.516,8.516-8.516h68.129C379.44,77.162,383.255,80.968,383.255,85.678z M212.932,43.097    h93.678c4.701,0,8.516,3.807,8.516,8.516s-3.815,8.516-8.516,8.516h-93.678c-4.701,0-8.516-3.807-8.516-8.516    S208.231,43.097,212.932,43.097z M281.061,85.678c0,4.709-3.815,8.516-8.516,8.516h-85.162c-4.701,0-8.516-3.807-8.516-8.516    s3.815-8.516,8.516-8.516h85.162C277.246,77.162,281.061,80.968,281.061,85.678z M136.286,43.097h42.581    c4.701,0,8.516,3.807,8.516,8.516s-3.815,8.516-8.516,8.516h-42.581c-4.701,0-8.516-3.807-8.516-8.516    S131.585,43.097,136.286,43.097z M136.286,77.162h17.032c4.701,0,8.516,3.807,8.516,8.516s-3.815,8.516-8.516,8.516h-17.032    c-4.701,0-8.516-3.807-8.516-8.516S131.585,77.162,136.286,77.162z M127.77,119.742c0-4.709,3.815-8.516,8.516-8.516h238.452    c4.701,0,8.516,3.807,8.516,8.516v51.097c0,4.709-3.815,8.516-8.516,8.516H136.286c-4.701,0-8.516-3.807-8.516-8.516V119.742z     M374.739,264.517h-51.097c-4.701,0-8.516-3.807-8.516-8.516v-51.097c0-4.709,3.815-8.516,8.516-8.516h51.097    c4.701,0,8.516,3.807,8.516,8.516v51.097C383.255,260.71,379.44,264.517,374.739,264.517z M383.255,290.066    c0,4.709-3.815,8.516-8.516,8.516h-34.065c-4.701,0-8.516-3.807-8.516-8.516s3.815-8.516,8.516-8.516h34.065    C379.44,281.549,383.255,285.356,383.255,290.066z M306.609,281.549c4.701,0,8.516,3.807,8.516,8.516s-3.815,8.516-8.516,8.516    h-93.678c-4.701,0-8.516-3.807-8.516-8.516s3.815-8.516,8.516-8.516H306.609z M221.448,256.001v-51.097    c0-4.709,3.815-8.516,8.516-8.516h51.097c4.701,0,8.516,3.807,8.516,8.516v51.097c0,4.709-3.815,8.516-8.516,8.516h-51.097    C225.263,264.517,221.448,260.71,221.448,256.001z M127.77,204.904c0-4.709,3.815-8.516,8.516-8.516h51.097    c4.701,0,8.516,3.807,8.516,8.516v51.097c0,4.709-3.815,8.516-8.516,8.516h-51.097c-4.701,0-8.516-3.807-8.516-8.516V204.904z     M136.286,281.549h42.581c4.701,0,8.516,3.807,8.516,8.516s-3.815,8.516-8.516,8.516h-42.581c-4.701,0-8.516-3.807-8.516-8.516    S131.585,281.549,136.286,281.549z M85.189,161.054v43.85H32.193L85.189,161.054z M85.198,221.936v44.267h-0.009l-53.115-44.267    H85.198z M17.06,231.602l71.195,59.324l100.525,83.773L17.06,487.206V231.602z M37.09,494.453l170.647-111.8l28.291-18.54    c0-0.008,0-0.008,0-0.008c11.837-7.75,27.133-7.758,38.97,0.008l28.291,18.54l170.647,111.8H37.09z M493.974,487.223    l-171.72-112.516l100.525-83.773l71.195-59.324V487.223z" fill="#61bf2e"/>
	</g>
</g>
<g>
	<g>
		<rect x="332.132" y="213.42" width="34.065" height="34.065" fill="#61bf2e"/>
	</g>
</g>
<g>
	<g>
		<rect x="238.455" y="213.42" width="34.065" height="34.065" fill="#61bf2e"/>
	</g>
</g>
<g>
	<g>
		<rect x="144.777" y="213.42" width="34.065" height="34.065" fill="#61bf2e"/>
	</g>
</g>
<g>
	<g>
		<rect x="144.777" y="128.259" width="221.42" height="34.065" fill="#61bf2e"/>
	</g>
</g>
<g>
</g>
<g>
</g>
<g>
</g>
<g>
</g>
<g>
</g>
<g>
</g>
<g>
</g>
<g>
</g>
<g>
</g>
<g>
</g>
<g>
</g>
<g>
</g>
<g>
</g>
<g>
</g>
<g>
</g>
</svg>
