<?xml version="1.0" encoding="iso-8859-1"?>
<!-- Generator: Adobe Illustrator 19.0.0, SVG Export Plug-In . SVG Version: 6.00 Build 0)  -->
<svg xmlns="http://www.w3.org/2000/svg" xmlns:xlink="http://www.w3.org/1999/xlink" version="1.1" id="Layer_1" x="0px" y="0px" viewBox="0 0 512 512" style="enable-background:new 0 0 512 512;" xml:space="preserve" width="512px" height="512px">
<g>
	<g>
		<g>
			<path d="M295.757,163.411l44.509,25.697c1.619,0.935,3.386,1.378,5.129,1.378c3.552,0,7.008-1.843,8.912-5.14     c2.839-4.916,1.154-11.203-3.762-14.041l-44.509-25.697c-4.917-2.84-11.203-1.154-14.041,3.762     C289.156,154.286,290.84,160.572,295.757,163.411z" fill="#FFDA44"/>
			<path d="M380.321,212.233l0.89,0.514c1.62,0.935,3.388,1.38,5.132,1.38c3.551,0,7.005-1.842,8.91-5.138     c2.841-4.915,1.158-11.202-3.757-14.043l-0.89-0.514c-4.917-2.841-11.202-1.156-14.042,3.758     C373.723,203.105,375.405,209.393,380.321,212.233z" fill="#FFDA44"/>
			<path d="M245.908,134.63l14.242,8.223c1.619,0.934,3.386,1.378,5.129,1.378c3.552,0,7.008-1.843,8.912-5.14     c2.839-4.916,1.154-11.203-3.762-14.041l-14.242-8.223c-4.918-2.838-11.204-1.154-14.041,3.762     C239.306,125.505,240.991,131.791,245.908,134.63z" fill="#FFDA44"/>
			<path d="M407.877,251.88l-209.19-120.776c-4.917-2.838-11.203-1.154-14.041,3.762c-2.839,4.916-1.154,11.203,3.762,14.041     l209.19,120.776c1.619,0.934,3.386,1.378,5.129,1.378c3.552,0,7.008-1.843,8.912-5.14     C414.478,261.006,412.794,254.719,407.877,251.88z" fill="#FFDA44"/>
			<path d="M133.353,229.877l48.96,28.267c1.619,0.934,3.386,1.378,5.129,1.378c3.552,0,7.008-1.843,8.912-5.14l28.267-48.959     c1.363-2.361,1.733-5.166,1.027-7.799c-0.706-2.633-2.428-4.878-4.789-6.241l-48.96-28.267     c-4.917-2.839-11.203-1.154-14.041,3.762l-28.267,48.959c-1.363,2.361-1.733,5.166-1.027,7.8     C129.27,226.269,130.992,228.514,133.353,229.877z M170.521,186.057l31.157,17.988l-17.988,31.156l-31.157-17.988     L170.521,186.057z" fill="#FFDA44"/>
			<path d="M172.034,275.947l-48.96-28.267c-4.917-2.838-11.204-1.154-14.041,3.762l-28.267,48.959     c-1.363,2.361-1.733,5.166-1.027,7.8c0.706,2.633,2.428,4.878,4.789,6.241l48.96,28.267c1.619,0.934,3.386,1.378,5.129,1.378     c3.552,0,7.008-1.843,8.912-5.14l28.267-48.959c1.363-2.361,1.733-5.166,1.027-7.8     C176.118,279.555,174.395,277.31,172.034,275.947z M134.866,319.767l-31.157-17.988l17.988-31.156l31.157,17.988L134.866,319.767     z" fill="#FFDA44"/>
			<path d="M373.185,311.967l-0.89-0.514c-4.917-2.841-11.202-1.153-14.041,3.764c-2.838,4.916-1.152,11.203,3.764,14.041     l0.89,0.514c1.618,0.934,3.385,1.378,5.128,1.378c3.553,0,7.008-1.844,8.913-5.141     C379.787,321.091,378.102,314.805,373.185,311.967z" fill="#FFDA44"/>
			<path d="M258.757,269.64c1.619,0.934,3.386,1.378,5.129,1.378c3.552,0,7.007-1.843,8.912-5.14     c2.839-4.916,1.154-11.203-3.762-14.041l-26.704-15.418c-4.917-2.839-11.202-1.154-14.041,3.762     c-2.839,4.916-1.154,11.203,3.762,14.041L258.757,269.64z" fill="#FFDA44"/>
			<path d="M332.238,288.327l-27.595-15.932c-4.918-2.839-11.203-1.154-14.041,3.762c-2.839,4.916-1.154,11.203,3.762,14.041     l27.595,15.932c1.619,0.934,3.386,1.378,5.129,1.378c3.552,0,7.008-1.843,8.912-5.14     C338.839,297.451,337.155,291.165,332.238,288.327z" fill="#FFDA44"/>
			<path d="M230.894,342.569l-37.387-21.586c-4.918-2.838-11.203-1.153-14.041,3.762c-2.839,4.916-1.154,11.203,3.762,14.041     l37.387,21.585c1.619,0.934,3.386,1.378,5.129,1.378c3.552,0,7.008-1.843,8.912-5.14     C237.495,351.695,235.811,345.408,230.894,342.569z" fill="#FFDA44"/>
			<path d="M275.848,368.523l-9.348-5.396c-4.917-2.84-11.203-1.154-14.041,3.762c-2.839,4.916-1.154,11.203,3.762,14.041     l9.348,5.396c1.619,0.935,3.386,1.378,5.129,1.378c3.552,0,7.008-1.843,8.912-5.14     C282.449,377.648,280.764,371.362,275.848,368.523z" fill="#FFDA44"/>
			<path d="M510.62,316.701l-30.025-52.007l30.025-52.007c1.363-2.361,1.733-5.166,1.027-7.8c-0.706-2.633-2.428-4.878-4.789-6.241     l-96.594-55.769L330.741,5.141c-2.839-4.914-9.123-6.6-14.041-3.762l-75.761,43.74l-45.642-26.351     c-4.917-2.84-11.202-1.154-14.041,3.762l-49.404,85.57L5.141,181.257c-4.916,2.838-6.601,9.124-3.762,14.041l40.066,69.395     L1.379,334.089c-2.839,4.916-1.154,11.203,3.762,14.041l126.713,73.158l49.404,85.57c1.905,3.297,5.358,5.14,8.912,5.14     c1.743,0,3.511-0.444,5.129-1.378l45.642-26.351l15.522,8.962c1.576,0.911,3.351,1.377,5.139,1.377     c0.89,0,1.785-0.116,2.66-0.351l95.016-25.46c2.634-0.706,4.878-2.428,6.241-4.789l44.745-77.499l96.594-55.769     C511.775,327.903,513.459,321.617,510.62,316.701z M318.078,24.321l56.58,97.999l-113.16-65.333L318.078,24.321z M24.321,193.921     l86.975-50.215l-57.984,100.43L24.321,193.921z M193.921,487.678l-26.461-45.832l52.922,30.555L193.921,487.678z      M282.911,467.979l17.231-29.846l29.846,17.231L282.911,467.979z M352.856,444.829L301.52,415.19     c-4.918-2.838-11.204-1.154-14.041,3.762l-29.639,51.336L24.321,335.467l169.6-293.757l293.757,169.6L352.856,444.829z      M430.822,350.904l37.904-65.653l18.952,32.826L430.822,350.904z" fill="#FFDA44"/>
		</g>
	</g>
</g>
<g>
</g>
<g>
</g>
<g>
</g>
<g>
</g>
<g>
</g>
<g>
</g>
<g>
</g>
<g>
</g>
<g>
</g>
<g>
</g>
<g>
</g>
<g>
</g>
<g>
</g>
<g>
</g>
<g>
</g>
</svg>
