<svg xmlns="http://www.w3.org/2000/svg" xmlns:xlink="http://www.w3.org/1999/xlink" width="410" height="408" viewBox="0 0 410 408">
    <defs>
        <path id="a" d="M13.936 13.908V.87H.897v13.038h13.039z"/>
        <path id="c" d="M0 407.704h409.936V0H0z"/>
    </defs>
    <g fill="none" fill-rule="evenodd">
        <path fill="#B0E2F7" d="M22.68 185.429c-.574-49.655 18.999-99.365 58.212-135.69C120.105 13.417 171.165-2.303 220.63 2.06l1.323-1.224a186.154 186.154 0 0 0-10.391-.697c-48.91-1.871-95.62 15.418-131.526 48.679-35.907 33.26-56.711 78.515-58.582 127.425a188.578 188.578 0 0 0-.1 10.414l1.325-1.227zM361.65 91.357l.98-.907a184.745 184.745 0 0 0-23.641-31.73c-12.947-13.978-27.717-25.654-43.806-34.829l-1.023.948c15.954 9.011 30.803 20.59 43.906 34.734a181.922 181.922 0 0 1 23.585 31.784M385.053 160.571c6.982 56.19-12.206 114.847-56.822 156.176-73.614 68.192-188.982 63.781-257.173-9.835-13.104-14.144-23.514-29.834-31.28-46.43l-1.023.95c7.918 16.741 18.432 32.36 31.379 46.336 33.262 35.908 78.516 56.712 127.425 58.582 48.91 1.87 95.62-15.418 131.528-48.679 35.906-33.262 56.71-78.516 58.58-127.426a185.477 185.477 0 0 0-1.382-30.815l-1.232 1.141z"/>
        <path fill="#B0E2F7" d="M72.289 110.738a150.629 150.629 0 0 1 20.472-28.745C147.449 21.607 240.264 15.84 301.979 68.1l.81-.894c-29.536-25.044-66.883-37.74-105.746-35.815-40.562 2.009-77.914 19.692-105.174 49.794a153.122 153.122 0 0 0-21.001 29.553h1.421zM54.048 174.548h-1.286a154.864 154.864 0 0 0-.053 16.214c1.924 38.863 18.247 74.774 46.086 101.691l.81-.893c-32.577-31.54-47.962-74.61-45.557-117.012M338.277 110.738a150.986 150.986 0 0 0-4.86-8.301l-.885.976c1.5 2.408 2.922 4.853 4.276 7.325h1.47zM356.346 174.548h-1.286c2.256 38.973-10.483 78.79-38.698 109.946-46.228 51.045-119.697 63.05-178.598 33.98l-.885.977c23.047 11.498 48.772 16.953 75.201 15.645 40.561-2.008 77.913-19.693 105.174-49.793 27.261-30.1 41.168-69.017 39.16-109.579-.019-.393-.045-.784-.068-1.176M267.691 334.738a162.168 162.168 0 0 0 6.616-2.938l-.513-1.089a161.77 161.77 0 0 1-6.567 2.917l.464 1.11zM74.153 280.706l-.965.72a164.366 164.366 0 0 0 4.447 5.698l.933-.76a164.918 164.918 0 0 1-4.415-5.658M66.1 268.84l-1.025.63a163.24 163.24 0 0 0 3.923 6.067l.997-.676a161.678 161.678 0 0 1-3.895-6.021M48.642 229.572l-1.155.34c.676 2.308 1.412 4.63 2.188 6.9l1.139-.39a161.638 161.638 0 0 1-2.172-6.85M93.256 302.1l-.824.877a165.984 165.984 0 0 0 5.383 4.836l.784-.912a165.9 165.9 0 0 1-5.343-4.801M59.125 256.297l-1.078.538a165.455 165.455 0 0 0 3.377 6.403l1.053-.585a162.388 162.388 0 0 1-3.352-6.356M53.288 243.168l-1.12.44a162.288 162.288 0 0 0 2.792 6.678l1.1-.488c-.968-2.177-1.9-4.408-2.772-6.63M254.098 339.716c2.291-.725 4.596-1.51 6.851-2.337l-.414-1.13c-2.238.82-4.527 1.6-6.8 2.32l.363 1.147zM225.708 344.787l.156 1.194c2.383-.314 4.79-.684 7.156-1.1l-.21-1.187c-2.348.414-4.738.78-7.102 1.093M239.86 342.293l.258 1.176a167.53 167.53 0 0 0 7.031-1.72l-.31-1.164c-2.302.617-4.65 1.193-6.98 1.708M104.151 311.462l-.743.947a164.838 164.838 0 0 0 5.79 4.346l.7-.979a163.955 163.955 0 0 1-5.747-4.314M115.832 319.834l-.658 1.01a167.207 167.207 0 0 0 6.153 3.822l.612-1.038a160.31 160.31 0 0 1-6.107-3.794M145.69 335.172a162.841 162.841 0 0 1-4.502-1.823l-.47 1.11c1.697.72 3.423 1.407 5.15 2.071l-.177-1.358zM128.21 327.151l-.568 1.063c2.122 1.13 4.298 2.23 6.468 3.267l.52-1.087a166.215 166.215 0 0 1-6.42-3.243M83.23 291.822l-.898.802a165.326 165.326 0 0 0 4.936 5.288l.86-.842a161.873 161.873 0 0 1-4.898-5.248M78.968 80.617l-.93-.765a163.615 163.615 0 0 0-4.469 5.695l.963.722a163.323 163.323 0 0 1 4.436-5.652M98.269 59.209a166.812 166.812 0 0 0-5.392 4.82l.822.88a163.207 163.207 0 0 1 5.352-4.786l-.782-.914zM87.7 69.083a165.908 165.908 0 0 0-4.949 5.278l.896.804a164.659 164.659 0 0 1 4.913-5.24l-.86-.842zM108.63 51.06a164.204 164.204 0 0 0-4.764 3.572l.74.95a164.5 164.5 0 0 1 4.202-3.162l-.177-1.36zM176.052 23.769l-.21-1.185c-2.133.378-4.284.809-6.41 1.273l.156 1.197c2.142-.469 4.312-.904 6.464-1.285M211.46 346.035l.154 1.197a167.91 167.91 0 0 0 7.055-.463l-.106-1.2c-2.354.206-4.744.362-7.104.466M69.353 91.435a165.067 165.067 0 0 0-3.953 6.068l1.023.635a161.373 161.373 0 0 1 3.924-6.024l-.993-.679zM61.718 103.74a162.742 162.742 0 0 0-3.405 6.396l1.075.543a163.056 163.056 0 0 1 3.379-6.35l-1.05-.588zM45.693 144.046a163.49 163.49 0 0 0-1.603 7.078l1.179.24a161.104 161.104 0 0 1 1.592-7.026l-1.168-.292zM55.193 116.677a162.897 162.897 0 0 0-2.827 6.675l1.118.444a164.477 164.477 0 0 1 2.806-6.625l-1.097-.494zM49.835 130.146a165.01 165.01 0 0 0-2.226 6.902l1.154.344a162.588 162.588 0 0 1 2.21-6.85l-1.138-.396zM361.375 230.555c.69-2.31 1.339-4.663 1.925-6.994l-1.168-.294a163.32 163.32 0 0 1-1.91 6.943l1.153.345zM353.046 117.798l1.101-.487a163.311 163.311 0 0 0-3.08-6.553l-1.079.537a162.128 162.128 0 0 1 3.058 6.503M330.58 81.208l.932-.761a167.572 167.572 0 0 0-4.689-5.504l-.9.8a163.143 163.143 0 0 1 4.656 5.465M280.786 328.57a162.461 162.461 0 0 0 6.311-3.505l-.607-1.04a159.534 159.534 0 0 1-6.265 3.48l.561 1.065zM339.14 92.72l.998-.676a163.859 163.859 0 0 0-4.183-5.893l-.966.72c1.42 1.91 2.817 3.877 4.152 5.848"/>
        <path fill="#B0E2F7" d="M205.002 21.242l.003-1.204c-2.399-.004-4.835.045-7.238.148l.052 1.202a163.98 163.98 0 0 1 7.183-.146M183.153 22.67l.352-.045c2.37-.31 4.776-.571 7.142-.775l-.102-1.2c-2.386.207-4.807.469-7.2.78l-.347.047.155 1.194zM219.356 21.903l.109-1.199a164.488 164.488 0 0 0-7.223-.493l-.055 1.202c2.382.11 4.794.275 7.169.49M261.328 31.483l.423-1.128a163.838 163.838 0 0 0-6.848-2.39l-.37 1.145c2.266.735 4.552 1.533 6.795 2.373M247.634 27.043l.321-1.161a162.628 162.628 0 0 0-7.037-1.772l-.267 1.174c2.335.533 4.685 1.125 6.983 1.759M233.592 23.838l.216-1.184a161.478 161.478 0 0 0-7.15-1.135l-.163 1.193c2.36.32 4.748.7 7.097 1.126M346.644 104.935l1.053-.584a164.976 164.976 0 0 0-3.642-6.236l-1.027.63a163.352 163.352 0 0 1 3.616 6.19M326.166 293.204a164.1 164.1 0 0 0 4.72-5.487l-.93-.764a164.787 164.787 0 0 1-4.685 5.447l.895.804zM335.36 282.028a165.402 165.402 0 0 0 4.223-5.883l-.994-.68a164.214 164.214 0 0 1-4.191 5.84l.963.723zM343.542 270.082a166.095 166.095 0 0 0 3.69-6.233l-1.05-.591a165.022 165.022 0 0 1-3.662 6.188l1.022.636zM293.251 321.28c2.01-1.3 4.024-2.662 5.981-4.053l-.697-.983a159.482 159.482 0 0 1-5.937 4.025l.653 1.012zM350.643 257.457a167.26 167.26 0 0 0 3.127-6.538l-1.097-.495a165.557 165.557 0 0 1-3.104 6.49l1.074.543zM305.03 312.91c1.89-1.472 3.773-3.01 5.602-4.57l-.78-.916a163.046 163.046 0 0 1-5.563 4.537l.74.95zM316.03 303.526c1.757-1.64 3.5-3.338 5.182-5.049l-.86-.844a164.323 164.323 0 0 1-5.143 5.012l.822.881zM365.094 159.066l1.191-.182a167.014 167.014 0 0 0-1.25-7.13l-1.182.234c.461 2.328.879 4.71 1.241 7.078M356.604 244.248a160.85 160.85 0 0 0 2.538-6.792l-1.137-.397a160.775 160.775 0 0 1-2.519 6.743l1.118.446zM358.277 131.179l1.141-.39a162.722 162.722 0 0 0-2.486-6.796l-1.12.437a159.51 159.51 0 0 1 2.465 6.749M362.302 144.971l1.17-.286a164.899 164.899 0 0 0-1.872-6.99l-1.157.336a164.006 164.006 0 0 1 1.859 6.94M367.851 173.274a164.227 164.227 0 0 0-.627-7.212l-1.196.131c.259 2.382.468 4.79.622 7.16l1.201-.079zM364.91 216.484c.48-2.354.915-4.75 1.29-7.124l-1.189-.188a162.556 162.556 0 0 1-1.28 7.071l1.18.241zM367.172 202.186c.269-2.386.488-4.811.65-7.209l-1.2-.083a161.466 161.466 0 0 1-.646 7.158l1.196.134zM368.153 187.744c.057-2.404.058-4.84.008-7.24l-1.203.027c.05 2.382.047 4.799-.009 7.186l1.204.027zM345.362 183.243c0 77.763-63.039 140.8-140.8 140.8-77.763 0-140.802-63.037-140.802-140.8 0-77.761 63.04-140.8 140.801-140.8 77.762 0 140.801 63.039 140.801 140.8"/>
        <g transform="translate(396 192.704)">
            <mask id="b" fill="#fff">
                <use xlink:href="#a"/>
            </mask>
            <path fill="#B0E2F7" d="M13.936 7.39a6.519 6.519 0 0 1-6.519 6.518 6.519 6.519 0 1 1 0-13.038c3.6 0 6.52 2.918 6.52 6.52" mask="url(#b)"/>
        </g>
        <path fill="#B0E2F7" d="M349.166 38.716a3.804 3.804 0 1 1-7.607-.001 3.804 3.804 0 0 1 7.607.001M28.397 226.284a7.071 7.071 0 1 1-14.143 0 7.071 7.071 0 0 1 14.143 0M306.506 312.725a2.533 2.533 0 0 1 0-5.064 2.535 2.535 0 0 1 2.533 2.53 2.535 2.535 0 0 1-2.533 2.534"/>
        <mask id="d" fill="#fff">
            <use xlink:href="#c"/>
        </mask>
        <path fill="#F9BD31" d="M195.057 367.448h62.246v-55.806h-62.246z" mask="url(#d)"/>
        <path fill="#F8A04A" d="M194.239 320.935h63.883v-9.293h-63.883z" mask="url(#d)"/>
        <path fill="#FBB041" d="M257.303 367.448h-23.372l-38.874-46.513h62.246z" mask="url(#d)"/>
        <path fill="#724724" d="M251.957 311.642h-6.843v12.844l1.478-.69 1.333.638 1.85-1.088 2.182 1.14zM207.246 311.642h-6.843v12.844l1.479-.69 1.333.638 1.848-1.088 2.183 1.14z" mask="url(#d)"/>
        <path fill="#E0EDF5" d="M197.737 348.608h24.87v-11.513h-24.87z" mask="url(#d)"/>
        <path fill="#445D76" d="M199.148 346.298h.773v-8.367h-.773zM200.694 346.298h.772v-8.367h-.772zM205.331 346.298h.772v-8.367h-.772zM209.967 346.298h.772v-8.367h-.772zM214.008 346.298h.772v-8.367h-.772zM201.83 346.298h.386v-8.367h-.386zM206.466 346.298h.386v-8.367h-.386zM211.102 346.298h.387v-8.367h-.387zM215.143 346.298h.386v-8.367h-.386zM203.122 346.298h.772v-8.367h-.772zM207.758 346.298h.773v-8.367h-.773zM212.395 346.298h.772v-8.367h-.772zM216.435 346.298h.773v-8.367h-.773zM202.484 347.773h.386v-9.841h-.386zM207.12 346.298h.386v-8.367h-.386zM211.755 346.298h.387v-8.367h-.387zM215.796 346.298h.386v-8.367h-.386zM200.134 346.298h.387v-8.367h-.387zM204.771 346.298h.386v-8.367h-.386zM209.407 346.298h.387v-8.367h-.387zM213.448 346.298h.386v-8.367h-.386zM217.993 346.298h.772v-8.367h-.772zM219.13 346.298h.386v-8.367h-.386zM220.422 346.298h.772v-8.367h-.772zM219.783 346.298h.386v-8.367h-.386zM217.435 346.298h.386v-8.367h-.386zM221.59 328.789a3.223 3.223 0 0 0-3.117-2.444 3.22 3.22 0 0 0-3.116 2.444h6.233z" mask="url(#d)"/>
        <path fill="#445D76" d="M218.776 332.898a1.223 1.223 0 1 1-2.444 0h.6a.623.623 0 0 0 1.244 0v-4.338h.6v4.338zM211.569 329.488v4.127l-.575.002v-4.13z" mask="url(#d)"/>
        <path fill="#445D76" d="M213.548 326.34v2.689a2.274 2.274 0 0 1-2.268 2.267 2.272 2.272 0 0 1-2.266-2.267v-2.69h4.534zM209.986 333.616h2.59c.353 0 .643.202.643.45h-3.875c0-.248.288-.45.642-.45M202.655 329.517v3.993h-1.452v-3.993h-1.007l.867-1.587.865-1.589.866 1.589.867 1.587zM206.582 329.517v3.993h-1.452v-3.993h-1.006l.866-1.587.866-1.589.866 1.589.866 1.587zM200.62 333.51h6.546l.001.558h-6.548z" mask="url(#d)"/>
        <path fill="#FAE1B8" d="M269.457 353.18l-.92.919c-4.04 4.033-2.246 10.069-12.933 14.54-4.849 1.334-10.35.94-13.34.285-.722-1.103.368-2.5 1.84-2.662 3.022.53 6.19.52 9.336-.058.325-.026.288-.38-.002-.358-3.357.66-6.4.628-9.226.13-.364-1.342.444-2.65 2.402-2.788 3.442-.145 6.614.103 8.757-1.343 2.82-2.541-.15-4.555-1.925-2.761l-1.57 1.383c-1.8 1.779-3.615 1.34-4.553-.277 1.427-.713 3.667-2.614 4.938-4.273a32.412 32.412 0 0 1 5.58-5.801c1.463-1.327 2.852-1.423 4.341-1.282.83.225 1.661-.354 1.942-.986l5.333 5.333z" mask="url(#d)"/>
        <path fill="#328ECC" d="M263.927 344.054l11.113-11.114 9.698 9.698-11.114 11.114z" mask="url(#d)"/>
        <path fill="#E0EEF9" d="M264.362 344.49l-1.797 1.798 8.771 8.772 1.798-1.798z" mask="url(#d)"/>
        <path fill="#2980B2" d="M271.555 351.681l11.114-11.114 2.07 2.071-11.115 11.114z" mask="url(#d)"/>
        <path fill="#AAD2ED" d="M271.555 351.681l-1.798 1.8 1.58 1.578 1.797-1.798z" mask="url(#d)"/>
        <path fill="#FAE1B8" d="M183.532 353.18l.92.919c4.042 4.033 2.246 10.069 12.934 14.54 4.849 1.334 10.352.94 13.34.285.724-1.103-.369-2.5-1.84-2.662a26.394 26.394 0 0 1-9.334-.058c-.327-.026-.29-.38 0-.358 3.357.66 6.4.628 9.227.13.363-1.342-.446-2.65-2.404-2.788-3.441-.145-6.613.103-8.756-1.343-2.82-2.541.149-4.555 1.924-2.761l1.571 1.383c1.8 1.779 3.615 1.34 4.553-.277-1.428-.713-3.667-2.614-4.939-4.273a32.436 32.436 0 0 0-5.577-5.801c-1.466-1.327-2.855-1.423-4.343-1.282-.83.225-1.66-.354-1.942-.986l-5.334 5.333z" mask="url(#d)"/>
        <path fill="#328ECC" d="M189.064 344.054L177.95 332.94l-9.7 9.698 11.115 11.114z" mask="url(#d)"/>
        <path fill="#E0EDF5" d="M188.628 344.49l1.798 1.798-8.772 8.772-1.797-1.798z" mask="url(#d)"/>
        <path fill="#2980B2" d="M181.436 351.681l-11.114-11.114-2.07 2.071 11.113 11.114z" mask="url(#d)"/>
        <path fill="#AAD2ED" d="M181.436 351.681l1.798 1.8-1.58 1.578-1.797-1.798z" mask="url(#d)"/>
        <path fill="#328ECC" d="M5.244 236.137h82.363v-9.306H5.244z" mask="url(#d)"/>
        <path fill="#328ECC" d="M5.245 228.425h77.633v-1.594H5.245z" mask="url(#d)"/>
        <path fill="#F9BD31" d="M63.084 193.155l25.618 2.553a2.707 2.707 0 0 1 2.429 2.476l1.464 18.21s1.748.514 1.748 2.673v17.07H82.827l-3.291-9.357H63.084v-33.625z" mask="url(#d)"/>
        <path fill="#363C50" d="M91.028 197.64l-1.261.605.63 17.686 2.198.463z" mask="url(#d)"/>
        <path fill="#328ECC" d="M0 226.831h63.084v-39.588H0z" mask="url(#d)"/>
        <path fill="#363C50" d="M37.819 236.137a7.096 7.096 0 1 1-14.192-.001 7.096 7.096 0 0 1 14.192 0" mask="url(#d)"/>
        <path fill="#FEFEFE" d="M35.278 236.137a4.554 4.554 0 1 1-9.109 0 4.554 4.554 0 0 1 9.109 0" mask="url(#d)"/>
        <path fill="#363C50" d="M31.482 236.137a.758.758 0 1 1-1.516 0 .758.758 0 0 1 1.516 0M31.005 234.267a.281.281 0 1 1-.563 0 .281.281 0 0 1 .563 0M31.005 238.007a.281.281 0 1 1-.563 0 .281.281 0 0 1 .563 0M32.594 236.418a.281.281 0 1 1 0-.562.281.281 0 0 1 0 .562M28.854 236.418a.281.281 0 1 1 0-.562.281.281 0 0 1 0 .562M32.245 235.013a.281.281 0 1 1-.398-.397.281.281 0 0 1 .398.397M29.6 237.658a.281.281 0 1 1-.398-.398.281.281 0 0 1 .398.398M29.6 234.615a.281.281 0 1 1-.397.398.281.281 0 0 1 .397-.398M32.245 237.26a.281.281 0 1 1-.398.398.281.281 0 0 1 .398-.398" mask="url(#d)"/>
        <path stroke="#363C50" stroke-width=".151" d="M34.334 236.137a3.61 3.61 0 1 1-7.221 0 3.61 3.61 0 0 1 7.22 0z" mask="url(#d)"/>
        <path fill="#363C50" d="M21.846 236.137a7.096 7.096 0 1 1-14.191-.001 7.096 7.096 0 0 1 14.19 0" mask="url(#d)"/>
        <path fill="#FEFEFE" d="M19.305 236.137a4.554 4.554 0 1 1-9.108 0 4.554 4.554 0 0 1 9.108 0" mask="url(#d)"/>
        <path fill="#363C50" d="M15.51 236.137a.758.758 0 1 1-1.517 0 .758.758 0 0 1 1.516 0M15.032 234.267a.281.281 0 1 1-.562 0 .281.281 0 0 1 .562 0M15.032 238.007a.281.281 0 1 1-.562 0 .281.281 0 0 1 .562 0M16.621 236.418a.281.281 0 1 1 0-.562.281.281 0 0 1 0 .562M12.88 236.418a.281.281 0 1 1 .001-.562.281.281 0 0 1 0 .562M16.272 235.013a.281.281 0 1 1-.398-.397.281.281 0 0 1 .398.397M13.627 237.658a.281.281 0 1 1-.398-.398.281.281 0 0 1 .398.398M13.627 234.615a.281.281 0 1 1-.397.398.281.281 0 0 1 .397-.398M16.272 237.26a.281.281 0 1 1-.397.398.281.281 0 0 1 .397-.398" mask="url(#d)"/>
        <path stroke="#363C50" stroke-width=".151" d="M18.361 236.137a3.61 3.61 0 1 1-7.22 0 3.61 3.61 0 0 1 7.22 0z" mask="url(#d)"/>
        <path fill="#363C50" d="M79.37 236.137a7.096 7.096 0 1 1-14.19-.001 7.096 7.096 0 0 1 14.19 0" mask="url(#d)"/>
        <path fill="#FEFEFE" d="M76.83 236.137a4.554 4.554 0 1 1-9.109 0 4.554 4.554 0 0 1 9.109 0" mask="url(#d)"/>
        <path fill="#363C50" d="M73.034 236.137a.758.758 0 1 1-1.516 0 .758.758 0 0 1 1.516 0M72.557 234.267a.281.281 0 1 1-.562 0 .281.281 0 0 1 .562 0M72.557 238.007a.281.281 0 1 1-.562 0 .281.281 0 0 1 .562 0M74.146 236.418a.281.281 0 1 1 0-.562.281.281 0 0 1 0 .562M70.406 236.418a.281.281 0 1 1 0-.562.281.281 0 0 1 0 .562M73.797 235.013a.281.281 0 1 1-.398-.397.281.281 0 0 1 .398.397M71.152 237.658a.281.281 0 1 1-.398-.398.281.281 0 0 1 .398.398M71.152 234.615a.281.281 0 1 1-.397.398.281.281 0 0 1 .397-.398M73.797 237.26a.281.281 0 1 1-.397.398.281.281 0 0 1 .397-.398" mask="url(#d)"/>
        <path stroke="#363C50" stroke-width=".151" d="M75.886 236.137a3.61 3.61 0 1 1-7.221 0 3.61 3.61 0 0 1 7.221 0z" mask="url(#d)"/>
        <path fill="#363C50" d="M42.715 239.941h16.83a1.842 1.842 0 0 0 1.841-1.842v-6.855a1.842 1.842 0 0 0-1.842-1.843H42.716a1.843 1.843 0 0 0-1.843 1.843v6.855c0 1.017.826 1.842 1.843 1.842M83.772 198.899l-12.976-.833v16.272l17.15 1.426-.338-12.775a4.1 4.1 0 0 0-3.836-4.09" mask="url(#d)"/>
        <path fill="#328ECC" d="M94.343 219.068h-1.748v4.319l1.748 1.953z" mask="url(#d)"/>
        <path stroke="#328ECC" stroke-width=".303" d="M92.877 219.389H63.083" mask="url(#d)"/>
        <path fill="#363C50" d="M90.59 237.459h4.627v-6.412H90.59zM1.748 237.459h4.627v-6.412H1.748z" mask="url(#d)"/>
        <path fill="#FEFEFE" d="M41.722 233.985h18.763v-1.459H41.722z" mask="url(#d)"/>
        <path fill="#363C50" d="M70.254 67.531h83.919v-3.418H70.254z" mask="url(#d)"/>
        <path fill="#363C50" d="M80.417 70.949h61.288v-3.418H80.417zM73.326 64.625L63.291 24.586l1.843-.41 10.752 39.937z" mask="url(#d)"/>
        <path fill="#F9BD31" d="M111.061 64.113h37.787V45.536h-37.787z" mask="url(#d)"/>
        <path fill="#FFD580" d="M134.599 64.113h14.249V45.536h-14.249z" mask="url(#d)"/>
        <path fill="#F9BD31" d="M85.716 41.213h25.345V18.326H85.716zM85.716 64.113h25.345V41.226H85.716zM111.061 45.536h30.644v-21.36h-30.644z" mask="url(#d)"/>
        <path fill="#FFE9C5" d="M95.889 22.297h5v-3.97h-5z" mask="url(#d)"/>
        <path fill="#FFD580" d="M111.061 45.536h12.003v-21.36h-12.003z" mask="url(#d)"/>
        <path fill="#FFE9C5" d="M113.917 28.146h3.97v-3.97h-3.97zM140.423 49.506h3.97v-3.97h-3.97z" mask="url(#d)"/>
        <path fill="#FFD580" d="M77.893 64.113h16.932V41.226H77.893z" mask="url(#d)"/>
        <path fill="#FFE9C5" d="M82.967 45.19h5v-3.97h-5z" mask="url(#d)"/>
        <path fill="#FFD580" d="M85.716 41.213h25.345v-3.291H85.716zM111.061 45.536h30.644v-1.832h-30.644zM111.061 64.113h2.614V45.536h-2.614z" mask="url(#d)"/>
        <path fill="#363C50" d="M86.636 75.962a3.494 3.494 0 1 1-6.989 0 3.494 3.494 0 0 1 6.99 0M142.589 75.962a3.494 3.494 0 1 1-6.99 0 3.494 3.494 0 0 1 6.99 0" mask="url(#d)"/>
        <path fill="#FEFEFE" d="M141.14 75.962a2.046 2.046 0 1 1-4.092 0 2.046 2.046 0 0 1 4.092 0M85.187 75.962a2.046 2.046 0 1 1-4.092 0 2.046 2.046 0 0 1 4.092 0" mask="url(#d)"/>
        <path fill="#363C50" d="M81.118 70.295l1.364 5.668h1.448l1.235-5.668zM136.928 70.295l1.364 5.668h1.45l1.234-5.668z" mask="url(#d)"/>
        <path fill="#599BD3" d="M245.656 221.15a2.704 2.704 0 1 1-5.407 0v-22.994a2.704 2.704 0 0 1 5.407 0v22.994zm-14.915 0a2.702 2.702 0 1 1-5.404 0v-22.994a2.7 2.7 0 0 1 2.701-2.703 2.7 2.7 0 0 1 2.703 2.703v22.994zm-14.913 0a2.704 2.704 0 1 1-5.407 0v-22.994a2.703 2.703 0 1 1 5.407 0v22.994zm-14.91 0a2.7 2.7 0 1 1-5.404 0v-22.994a2.7 2.7 0 0 1 2.703-2.703 2.7 2.7 0 0 1 2.701 2.703v22.994zm-14.906 0a2.706 2.706 0 0 1-5.412 0v-22.994a2.706 2.706 0 1 1 5.412 0v22.994zm59.141-42.502h-64.038c-5.053 0-9.148 4.099-9.148 9.154v34.61c0 5.05 4.095 9.147 9.148 9.147h64.038c5.044 0 9.143-4.097 9.143-9.147v-34.61c0-5.055-4.099-9.154-9.143-9.154z" mask="url(#d)"/>
        <path fill="#00496A" d="M171.967 187.802v5.527h82.33v-5.527c0-.66-.074-1.297-.206-1.915h-81.92a9.134 9.134 0 0 0-.204 1.915" mask="url(#d)"/>
        <path fill="#FEFEFE" d="M166.341 186.71a2.877 2.877 0 0 0 2.881 2.88h87.817a2.877 2.877 0 0 0 2.88-2.88v-8.772a2.878 2.878 0 0 0-2.88-2.879h-87.817a2.878 2.878 0 0 0-2.881 2.879v8.772z" mask="url(#d)"/>
        <path fill="#00496A" d="M185.224 182.924a3.87 3.87 0 0 1-3.1-6.19l21.89-29.334a3.89 3.89 0 0 1 5.426-.786 3.883 3.883 0 0 1 .789 5.423l-21.9 29.328a3.862 3.862 0 0 1-3.105 1.56M241.029 182.924c.806 0 1.618-.252 2.314-.768a3.867 3.867 0 0 0 .786-5.422L222.238 147.4a3.883 3.883 0 0 0-5.421-.786 3.882 3.882 0 0 0-.79 5.423l21.896 29.328a3.88 3.88 0 0 0 3.106 1.56" mask="url(#d)"/>
        <path fill="#599BD3" d="M271.456 70.865h69.809V24.496h-69.809z" mask="url(#d)"/>
        <path fill="#FFFCF5" d="M319.321 69.7h17.94V37.221h-17.94zM284.858 6.205H280l-11.885 17.692h6.978z" mask="url(#d)"/>
        <path fill="#F0C318" d="M289.723 6.205h-4.865l-9.764 17.692h6.983z" mask="url(#d)"/>
        <path fill="#FFFCF5" d="M294.586 6.205h-4.864l-7.644 17.692h6.981z" mask="url(#d)"/>
        <path fill="#F0C318" d="M299.446 6.205h-4.86l-5.527 17.692h6.975z" mask="url(#d)"/>
        <path fill="#FFFCF5" d="M304.31 6.205h-4.863l-3.412 17.692h6.984z" mask="url(#d)"/>
        <path fill="#F0C318" d="M309.168 6.205h-4.857l-1.292 17.692h6.975z" mask="url(#d)"/>
        <path fill="#FFFCF5" d="M314.034 6.205h-4.866l.825 17.692h6.983z" mask="url(#d)"/>
        <path fill="#F0C318" d="M318.889 6.205h-4.854l2.94 17.692h6.982z" mask="url(#d)"/>
        <path fill="#FFFCF5" d="M323.752 6.205h-4.864l5.068 17.692h6.985z" mask="url(#d)"/>
        <path fill="#F0C318" d="M328.616 6.205h-4.864l7.19 17.692h6.975z" mask="url(#d)"/>
        <path fill="#FFFCF5" d="M333.476 6.205h-4.86l9.3 17.692h6.982z" mask="url(#d)"/>
        <path fill="#D1D3D3" d="M284.858 6.205H280l-11.885 17.692h6.978z" mask="url(#d)"/>
        <path fill="#BE202E" d="M289.572 6.205h-4.864l-9.762 17.692h6.978z" mask="url(#d)"/>
        <path fill="#D1D3D3" d="M294.586 6.205h-4.864l-7.644 17.692h6.981z" mask="url(#d)"/>
        <path fill="#BE202E" d="M299.29 6.205h-4.86l-5.528 17.692h6.981z" mask="url(#d)"/>
        <path fill="#D1D3D3" d="M304.31 6.205h-4.863l-3.412 17.692h6.984z" mask="url(#d)"/>
        <path fill="#BE202E" d="M309.013 6.205h-4.857l-1.294 17.692h6.981z" mask="url(#d)"/>
        <path fill="#D1D3D3" d="M314.034 6.205h-4.866l.825 17.692h6.983z" mask="url(#d)"/>
        <path fill="#BE202E" d="M318.738 6.205h-4.861l2.948 17.692h6.982z" mask="url(#d)"/>
        <path fill="#D1D3D3" d="M323.752 6.205h-4.864l5.068 17.692h6.985z" mask="url(#d)"/>
        <path fill="#BE202E" d="M328.466 6.205h-4.867l7.193 17.692h6.974z" mask="url(#d)"/>
        <path fill="#D1D3D3" d="M333.476 6.205h-4.86l9.3 17.692h6.982z" mask="url(#d)"/>
        <path fill="#FFFCF5" d="M275.093 29.037a4.927 4.927 0 0 1-6.978 0v-5.14h6.978v5.14z" mask="url(#d)"/>
        <path fill="#EC2226" d="M282.078 29.037a4.934 4.934 0 0 1-6.984 0v-5.14h6.984v5.14z" mask="url(#d)"/>
        <path fill="#FFFCF5" d="M289.053 29.037a4.923 4.923 0 0 1-6.975 0v-5.14h6.975v5.14z" mask="url(#d)"/>
        <path fill="#EC2226" d="M296.035 29.037a4.932 4.932 0 0 1-6.982 0v-5.14h6.982v5.14z" mask="url(#d)"/>
        <path fill="#FFFCF5" d="M303.012 29.037a4.927 4.927 0 0 1-6.978 0v-5.14h6.978v5.14z" mask="url(#d)"/>
        <path fill="#EC2226" d="M309.994 29.037a4.93 4.93 0 0 1-6.981 0v-5.14h6.98v5.14z" mask="url(#d)"/>
        <path fill="#FFFCF5" d="M316.969 29.037a4.923 4.923 0 0 1-6.975 0v-5.14h6.975v5.14z" mask="url(#d)"/>
        <path fill="#EC2226" d="M323.957 29.037a4.939 4.939 0 0 1-6.988 0v-5.14h6.988v5.14z" mask="url(#d)"/>
        <path fill="#FFFCF5" d="M330.935 29.037a4.927 4.927 0 0 1-6.978 0v-5.14h6.978v5.14z" mask="url(#d)"/>
        <path fill="#EC2226" d="M337.917 29.037a4.932 4.932 0 0 1-6.982 0v-5.14h6.982v5.14z" mask="url(#d)"/>
        <path fill="#FFFCF5" d="M344.892 29.037a4.923 4.923 0 0 1-6.975 0v-5.14h6.975v5.14zM277.338 55.683h38.797V36.938h-38.797z" mask="url(#d)"/>
        <path fill="#414042" d="M277.338 46.651h38.797v-.676h-38.797z" mask="url(#d)"/>
        <path fill="#414042" d="M296.274 55.683h.922V36.938h-.922z" mask="url(#d)"/>
        <path fill="#00496A" d="M269.212 75.128h74.457v-4.612h-74.457z" mask="url(#d)"/>
        <path fill="#D1EBFA" d="M352.32 232.211c-.86 3.51-1.717 7.02-2.575 10.53h24.034c-.86-3.51-1.717-7.02-2.575-10.53H352.32z" mask="url(#d)"/>
        <path fill="#83A2B1" d="M375.264 242.555H348.26c-.685 0-1.24.652-1.24 1.459v.546h29.486v-.546c0-.807-.557-1.459-1.24-1.459" mask="url(#d)"/>
        <path fill="#EFEFEF" d="M321.155 228.115v5.803a2.02 2.02 0 0 0 2.023 2.02h77.167a2.02 2.02 0 0 0 2.022-2.02v-5.803h-81.212z" mask="url(#d)"/>
        <path fill="#0D2F3E" d="M402.367 228.115v-49.127a2.021 2.021 0 0 0-2.022-2.022h-77.167a2.02 2.02 0 0 0-2.023 2.022v49.127h81.212z" mask="url(#d)"/>
        <path fill="#FBB041" d="M324.482 224.762h74.559v-44.636h-74.559z" mask="url(#d)"/>
        <path fill="#FEFEFE" d="M358.87 209.88c-.73 0-1.315.582-1.315 1.305 0 .722.584 1.314 1.315 1.314.722 0 1.31-.592 1.31-1.314 0-.723-.588-1.306-1.31-1.306m12.578 0c-.727 0-1.31.583-1.31 1.306 0 .722.583 1.314 1.31 1.314.727 0 1.31-.592 1.31-1.314 0-.723-.583-1.306-1.31-1.306m3.7-15.97h-18.935c-.857 0-1.097-.215-1.296-1.029a976.261 976.261 0 0 1-.99-3.916c-.19-.714-.37-.862-1.135-.862h-4.857c-.865 0-.69 2.02.176 2.02h3.954c.754 0 .833.128 1.018.87 1.445 5.693 2.621 10.721 4.144 16.387.254.944.116 1.176-.407 1.704a2.986 2.986 0 0 0-.899 2.13 2.944 2.944 0 0 0 2.95 2.944 2.94 2.94 0 0 0 2.55-1.463c.342-.602.644-.833 1.231-.833h4.903c.708 0 .958.213 1.296.796.52.888 1.468 1.5 2.574 1.5a2.945 2.945 0 0 0 2.953-2.945 2.952 2.952 0 0 0-5.379-1.684c-.537.768-.865 1.027-1.389 1.027h-4.935c-.624 0-.902-.25-1.356-.99-.36-.575-.94-.982-1.597-1.176-.69-.214-.98-.37-1.148-1.01a81.667 81.667 0 0 0-.227-.917c-.185-.712-.037-.87.77-.87h12.803c1.14 0 1.482-.194 1.681-.842.32-1 .166-1.102-.75-1.102h-13.703c-.56 0-.57-.852-.009-.852h14.013c.861 0 .977-.083 1.144-.74.171-.704.064-.778-.769-.778H358.55c-.56 0-.573-.852-.013-.852h15.208c.846 0 .981-.065 1.143-.732.166-.639.07-.74-.838-.74h-16.083c-.565 0-.574-.862-.009-.862h16.383c.806 0 .977-.083 1.144-.749.153-.593.098-.74-.814-.74h-17.29c-.567 0-.575-.863-.02-.863h17.527c.903 0 1.046-.064 1.208-.805.181-.85-.042-1.027-.949-1.027" mask="url(#d)"/>
        <path stroke="#FEFEFE" stroke-dasharray="5.456" stroke-linecap="round" stroke-linejoin="round" stroke-width="1.819" d="M57.364 323.597v64.97c0 9.548 3.892 18.227 15.245 18.227h56.946" mask="url(#d)"/>
    </g>
</svg>
